SplineFontDB: 3.0
FontName: tsi4n-smcp-onum-pnum
FullName: tsi4n-smcp-onum-pnum
FamilyName: tsi4n-smcp-onum-pnum
Weight: Book
Copyright: http://dejavu-fonts.org
Version: 10.18
ItalicAngle: -11
UnderlinePosition: -85
UnderlineWidth: 90
Ascent: 1638
Descent: 410
sfntRevision: 0x000a2e14
LayerCount: 2
Layer: 0 1 "Back"  1
Layer: 1 1 "Fore"  0
NeedsXUIDChange: 1
XUID: [1021 545 1002448030 1969353]
FSType: 0
OS2Version: 3
OS2_WeightWidthSlopeOnly: 0
OS2_UseTypoMetrics: 1
CreationTime: 1339177157
ModificationTime: 1339183271
PfmFamily: 17
TTFWeight: 400
TTFWidth: 5
LineGap: 0
VLineGap: 0
Panose: 2 6 6 3 5 3 5 11 2 4
OS2TypoAscent: 263
OS2TypoAOffset: 1
OS2TypoDescent: -73
OS2TypoDOffset: 1
OS2TypoLinegap: 0
OS2WinAscent: 336
OS2WinAOffset: 1
OS2WinDescent: 0
OS2WinDOffset: 1
HheadAscent: 336
HheadAOffset: 1
HheadDescent: 0
HheadDOffset: 1
OS2SubXSize: 1331
OS2SubYSize: 1433
OS2SubXOff: 54
OS2SubYOff: 286
OS2SupXSize: 1331
OS2SupYSize: 1433
OS2SupXOff: -187
OS2SupYOff: 983
OS2StrikeYSize: 102
OS2StrikeYPos: 530
OS2Vendor: 'PfEd'
OS2CodePages: 00000000.00000000
OS2UnicodeRanges: 00000000.00000000.00000000.00000000
Lookup: 1 0 0 "'smcp' Lowercase to Small Capitals in Latin lookup 0"  {"'smcp' Lowercase to Small Capitals in Latin lookup 0 subtable"  } ['smcp' ('DFLT' <'dflt' > 'grek' <'dflt' > 'latn' <'dflt' > ) ]
Lookup: 1 0 0 "'c2sc' Capitals to Small Capitals in Latin lookup 0"  {"'c2sc' Capitals to Small Capitals in Latin lookup 0 subtable"  } ['c2sc' ('DFLT' <'dflt' > 'grek' <'dflt' > 'latn' <'dflt' > ) ]
Lookup: 6 0 0 "'ccmp' Glyph Composition/Decomposition lookup 0"  {"'ccmp' Glyph Composition/Decomposition lookup 0 subtable"  } ['ccmp' ('DFLT' <'dflt' > 'cyrl' <'MKD ' 'SRB ' 'dflt' > 'grek' <'dflt' > 'latn' <'AZE ' 'CRT ' 'GAG ' 'ISM ' 'KAZ ' 'KRK ' 'KSM ' 'LSM ' 'MOL ' 'NSM ' 'ROM ' 'SKS ' 'SSM ' 'TAT ' 'TRK ' 'dflt' > ) ]

StartChar: exclam
Encoding: 0 33 0
Width: 740
VWidth: 0
GlyphClass: 2
Flags: HW
HStem: -25 267<196.996 343.564> 1260 20G<395.526 630>
VStem: 148 245<24 192.984> 270 111<392 503>
LayerCount: 2
Fore
SplineSet
151 108 m 0,0,1
 161 164 161 164 202 203 c 128,-1,2
 243 242 243 242 294 242 c 0,3,4
 344 242 344 242 372 203 c 0,5,6
 393 174 393 174 393 136 c 0,7,8
 393 123 393 123 390 108 c 0,9,10
 380 53 380 53 338.5 14 c 128,-1,11
 297 -25 297 -25 247 -25 c 0,12,13
 196 -24 196 -24 168 14 c 0,14,15
 148 42 148 42 148 79 c 0,16,17
 148 93 148 93 151 108 c 0,0,1
398 1280 m 1,18,-1
 630 1280 l 1,19,-1
 425 601 l 1,20,-1
 381 392 l 1,21,-1
 270 392 l 1,22,-1
 314 601 l 1,23,-1
 398 1280 l 1,18,-1
EndSplineSet
EndChar

StartChar: numbersign
Encoding: 1 35 1
Width: 1569
VWidth: 0
GlyphClass: 2
Flags: HW
HStem: 0 21G<328 487.149 751 911.791> 335 153<142 420 620 846 1039 1325> 751 154<245 533 735 956 1151 1428>
VStem: 328 153<0 153> 674 153<1108 1261> 751 155<0 155> 1090 155<1106 1261>
DStem2: 328 0 481 0 0.264605 0.964357<40.4846 347.403 547.871 778.476 980.437 1307.61> 751 0 906 0 0.259616 0.965712<40.2405 348.177 546.037 778.471 977.816 1305.77>
LayerCount: 2
Fore
SplineSet
956 751 m 1,0,-1
 700 751 l 1,1,-1
 620 488 l 1,2,-1
 881 488 l 1,3,-1
 956 751 l 1,0,-1
827 1261 m 1,4,-1
 735 905 l 1,5,-1
 993 905 l 1,6,-1
 1090 1261 l 1,7,-1
 1245 1261 l 1,8,-1
 1151 905 l 1,9,-1
 1428 905 l 1,10,-1
 1428 751 l 1,11,-1
 1115 751 l 1,12,-1
 1039 488 l 1,13,-1
 1325 488 l 1,14,-1
 1325 335 l 1,15,-1
 1003 335 l 1,16,-1
 906 0 l 1,17,-1
 751 0 l 1,18,-1
 846 335 l 1,19,-1
 584 335 l 1,20,-1
 481 0 l 1,21,-1
 328 0 l 1,22,-1
 420 335 l 1,23,-1
 142 335 l 1,24,-1
 142 488 l 1,25,-1
 455 488 l 1,26,-1
 533 751 l 1,27,-1
 245 751 l 1,28,-1
 245 905 l 1,29,-1
 572 905 l 1,30,-1
 674 1261 l 1,31,-1
 827 1261 l 1,4,-1
EndSplineSet
EndChar

StartChar: dollar
Encoding: 2 36 2
Width: 1165
VWidth: 0
GlyphClass: 2
Flags: HW
HStem: -35 100<266.341 416 526 674.491> 1009 102<472.953 619 729 857.351>
VStem: 111 97<246.845 305> 198 186<721.524 898.776> 370 90<-271 -181> 702 90<1347 1437> 776 196<187.009 375.044> 923 98<802 829.562>
DStem2: 369.611 -273 460 -273 0.190809 0.981627<17.247 242.479 361.63 749.75 946.351 1306.03 1427.15 1742.01>
LayerCount: 2
Fore
SplineSet
526 65 m 1,0,1
 630 73 630 73 693 119.5 c 128,-1,2
 756 166 756 166 772 246 c 0,3,4
 776 265 776 265 776 282 c 0,5,6
 776 332 776 332 744 370 c 0,7,8
 700 420 700 420 600 446 c 1,9,-1
 526 65 l 1,0,1
619 1009 m 1,10,11
 525 1003 525 1003 464.5 959 c 128,-1,12
 404 915 404 915 388 840 c 0,13,14
 384 822 384 822 384 806 c 0,15,16
 384 761 384 761 413 728 c 0,17,18
 452 683 452 683 550 656 c 1,19,-1
 619 1009 l 1,10,11
61 68 m 1,20,-1
 111 305 l 1,21,-1
 208 305 l 1,22,23
 202 273 202 273 202 246 c 0,24,25
 202 172 202 172 244 128 c 0,26,27
 300 68 300 68 435 65 c 1,28,-1
 515 474 l 1,29,30
 320 530 320 530 250 602 c 0,31,32
 198 656 198 656 198 736 c 0,33,34
 198 764 198 764 204 794 c 0,35,36
 232 933 232 933 347 1017 c 128,-1,37
 462 1101 462 1101 639 1111 c 1,38,-1
 702 1437 l 1,39,-1
 792 1435 l 1,40,-1
 729 1111 l 1,41,42
 819 1104 819 1104 898.5 1083 c 128,-1,43
 978 1062 978 1062 1051 1027 c 1,44,-1
 1021 802 l 1,45,-1
 923 802 l 1,46,47
 925 816 925 816 925 830 c 0,48,49
 925 904 925 904 878 948 c 0,50,51
 823 1002 823 1002 709 1009 c 1,52,-1
 635 628 l 1,53,54
 845 570 845 570 918 495 c 0,55,56
 972 439 972 439 972 356 c 0,57,58
 972 327 972 327 966 295 c 0,59,60
 938 151 938 151 817.5 64.5 c 128,-1,61
 697 -22 697 -22 506 -35 c 1,62,-1
 460 -273 l 1,63,-1
 370 -271 l 1,64,-1
 416 -35 l 1,65,66
 330 -33 330 -33 241.5 -7.5 c 128,-1,67
 153 18 153 18 61 68 c 1,20,-1
EndSplineSet
EndChar

StartChar: quotesingle
Encoding: 3 39 3
Width: 506
VWidth: 0
GlyphClass: 2
Flags: HW
HStem: 725 555<181 324>
VStem: 181 143<725 1280>
LayerCount: 2
Fore
SplineSet
324 1280 m 1,0,-1
 324 725 l 1,1,-1
 181 725 l 1,2,-1
 181 1280 l 1,3,-1
 324 1280 l 1,0,-1
EndSplineSet
EndChar

StartChar: parenleft
Encoding: 4 40 4
Width: 719
VWidth: 0
GlyphClass: 2
Flags: HW
VStem: 179 169<2.52075 539.409>
LayerCount: 2
Fore
SplineSet
486 -273 m 1,0,1
 286 -180 286 -180 216 22 c 0,2,3
 179 129 179 129 179 266 c 0,4,5
 179 387 179 387 208 530 c 0,6,7
 270 835 270 835 423 1038 c 128,-1,8
 576 1241 576 1241 814 1334 c 1,9,-1
 797 1250 l 1,10,11
 640 1159 640 1159 546 994 c 128,-1,12
 452 829 452 829 391 530 c 0,13,14
 348 322 348 322 348 179 c 0,15,16
 348 116 348 116 356 66 c 0,17,18
 382 -100 382 -100 503 -189 c 1,19,-1
 486 -273 l 1,0,1
EndSplineSet
EndChar

StartChar: parenright
Encoding: 5 41 5
Width: 719
VWidth: 0
GlyphClass: 2
Flags: HW
VStem: 433 170<520.689 1056.79>
LayerCount: 2
Fore
SplineSet
-33 -273 m 1,0,-1
 -16 -189 l 1,1,2
 141 -98 141 -98 235.5 66.5 c 128,-1,3
 330 231 330 231 391 530 c 0,4,5
 433 737 433 737 433 880 c 0,6,7
 433 943 433 943 425 994 c 0,8,9
 398 1159 398 1159 277 1250 c 1,10,-1
 294 1334 l 1,11,12
 496 1241 496 1241 566 1038 c 0,13,14
 603 933 603 933 603 800 c 0,15,16
 603 797 603 797 603 793 c 0,17,18
 603 673 603 673 574 530 c 0,19,20
 512 226 512 226 359 23 c 128,-1,21
 206 -180 206 -180 -33 -273 c 1,0,-1
EndSplineSet
EndChar

StartChar: plus
Encoding: 6 43 6
Width: 1544
VWidth: 0
GlyphClass: 2
Flags: HW
HStem: 0 21G<700 844> 459 162<195 700 844 1349>
VStem: 700 144<0 459 621 1102>
LayerCount: 2
Fore
SplineSet
844 1102 m 1,0,-1
 844 621 l 1,1,-1
 1349 621 l 1,2,-1
 1349 459 l 1,3,-1
 844 459 l 1,4,-1
 844 0 l 1,5,-1
 700 0 l 1,6,-1
 700 459 l 1,7,-1
 195 459 l 1,8,-1
 195 621 l 1,9,-1
 700 621 l 1,10,-1
 700 1102 l 1,11,-1
 844 1102 l 1,0,-1
EndSplineSet
EndChar

StartChar: comma
Encoding: 7 44 7
Width: 586
VWidth: 0
GlyphClass: 2
Flags: HW
HStem: -276 507
VStem: 268 184<85.8867 231>
LayerCount: 2
Fore
SplineSet
36 -196 m 1,0,1
 133 -127 133 -127 189 -33 c 128,-1,2
 245 61 245 61 268 194 c 2,3,-1
 274 231 l 1,4,-1
 452 231 l 1,5,6
 415 60 415 60 328 -63 c 128,-1,7
 241 -186 241 -186 94 -276 c 1,8,-1
 36 -196 l 1,0,1
EndSplineSet
EndChar

StartChar: hyphen
Encoding: 8 45 8
Width: 623
VWidth: 0
GlyphClass: 2
Flags: HW
HStem: 392 157<95 528>
VStem: 68 488
LayerCount: 2
Fore
SplineSet
95 549 m 1,0,-1
 556 549 l 1,1,-1
 528 392 l 1,2,-1
 68 392 l 1,3,-1
 95 549 l 1,0,-1
EndSplineSet
EndChar

StartChar: period
Encoding: 9 46 9
Width: 586
VWidth: 0
GlyphClass: 2
Flags: HW
HStem: -25 267<229.996 377.125>
VStem: 181 245<24 192.984>
LayerCount: 2
Fore
SplineSet
184 108 m 0,0,1
 194 164 194 164 235 203 c 128,-1,2
 276 242 276 242 327 242 c 0,3,4
 377 242 377 242 405 203 c 0,5,6
 426 174 426 174 426 136 c 0,7,8
 426 122 426 122 424 108 c 0,9,10
 414 53 414 53 372 14 c 128,-1,11
 330 -25 330 -25 280 -25 c 0,12,13
 230 -24 230 -24 202 14 c 0,14,15
 182 43 182 43 181 80 c 0,16,17
 182 94 182 94 184 108 c 0,0,1
EndSplineSet
EndChar

StartChar: slash
Encoding: 10 47 10
Width: 640
VWidth: 0
GlyphClass: 2
Flags: HW
HStem: 1260 20G<628.115 788>
DStem2: -148 -166 1 -166 0.478043 0.878336<71.2285 1646.29>
LayerCount: 2
Fore
SplineSet
639 1280 m 1,0,-1
 788 1280 l 1,1,-1
 1 -166 l 1,2,-1
 -148 -166 l 1,3,-1
 639 1280 l 1,0,-1
EndSplineSet
EndChar

StartChar: zero
Encoding: 11 48 11
Width: 1172
VWidth: 0
GlyphClass: 2
Flags: HW
HStem: -25 99<410.225 672.358> 1204 99<627.828 889.323>
VStem: 158 181<162.855 675.883> 960 181<602.177 1118.54>
LayerCount: 2
Fore
SplineSet
532 74 m 128,-1,1
 670 74 670 74 767.5 214.5 c 128,-1,2
 865 355 865 355 924 639 c 0,3,4
 960 810 960 810 960 929 c 0,5,6
 960 1008 960 1008 944 1064 c 0,7,8
 905 1204 905 1204 767.5 1204 c 128,-1,9
 630 1204 630 1204 532.5 1063.5 c 128,-1,10
 435 923 435 923 375 639 c 0,11,12
 339 468 339 468 339 349 c 0,13,14
 339 270 339 270 355 214 c 0,15,0
 394 74 394 74 532 74 c 128,-1,1
514 -25 m 128,-1,17
 294 -25 294 -25 208 150 c 0,18,19
 158 251 158 251 158 399 c 0,20,21
 158 507 158 507 185 639 c 0,22,23
 249 954 249 954 408 1128.5 c 128,-1,24
 567 1303 567 1303 786 1303 c 0,25,26
 1006 1303 1006 1303 1092 1128 c 0,27,28
 1141 1028 1141 1028 1141 882 c 0,29,30
 1141 773 1141 773 1114 639 c 0,31,32
 1050 325 1050 325 892 150 c 128,-1,16
 734 -25 734 -25 514 -25 c 128,-1,17
EndSplineSet
EndChar

StartChar: one
Encoding: 12 49 12
Width: 1166
VWidth: 0
GlyphClass: 2
Flags: HW
HStem: 0 106<148 382 563 784> 1283 20G<646.041 796>
VStem: 129 675
DStem2: 312 1107 287 983 0.884712 0.466138<0 253.789> 361.396 0 542.396 0 0.190809 0.981627<142.52 1160.17>
LayerCount: 2
Fore
SplineSet
129 0 m 1,0,-1
 148 106 l 1,1,-1
 382 106 l 1,2,-1
 582 1139 l 1,3,-1
 287 983 l 1,4,-1
 312 1107 l 1,5,-1
 684 1303 l 1,6,-1
 796 1303 l 1,7,-1
 563 106 l 1,8,-1
 804 106 l 1,9,-1
 784 0 l 1,10,-1
 129 0 l 1,0,-1
EndSplineSet
EndChar

StartChar: two
Encoding: 13 50 13
Width: 1181
VWidth: 0
GlyphClass: 2
Flags: HW
HStem: 0 164<253 785> 1204 99<446.21 785.264>
VStem: 201 101<969 1036.1> 815 105<211 316> 851 199<844.349 1139.5>
DStem2: 11 108 253 164 0.793108 0.609081<226.041 965.432> 753.122 0 859.159 0 0.190809 0.981627<167.07 322.001>
LayerCount: 2
Fore
SplineSet
302 969 m 1,0,-1
 201 969 l 1,1,-1
 248 1189 l 1,2,3
 355 1244 355 1244 459.5 1273.5 c 128,-1,4
 564 1303 564 1303 658 1303 c 0,5,6
 870 1303 870 1303 972 1205 c 0,7,8
 1050 1131 1050 1131 1050 1016 c 0,9,10
 1050 979 1050 979 1042 938 c 0,11,12
 1003 747 1003 747 665 481 c 0,13,14
 640 461 640 461 627 451 c 2,15,-1
 253 164 l 1,16,-1
 785 164 l 1,17,-1
 815 316 l 1,18,-1
 920 313 l 1,19,-1
 859 0 l 1,20,-1
 -8 0 l 1,21,-1
 11 108 l 1,22,-1
 498 482 l 2,23,24
 659 608 659 608 738.5 713.5 c 128,-1,25
 818 819 818 819 843 935 c 0,26,27
 851 975 851 975 851 1010 c 0,28,29
 851 1085 851 1085 813 1133 c 0,30,31
 757 1204 757 1204 633 1204 c 0,32,33
 504 1204 504 1204 422 1145 c 128,-1,34
 340 1086 340 1086 302 969 c 1,0,-1
EndSplineSet
EndChar

StartChar: three
Encoding: 14 51 14
Width: 1172
VWidth: 0
GlyphClass: 2
Flags: HW
HStem: -25 99<244.181 619.026> 640 103<458 698.269> 1204 99<477.19 822.59>
VStem: 72 102<270.657 314> 252 102<995 1062.94> 795 189<253.355 565.486> 875 185<895.709 1153.9>
LayerCount: 2
Fore
SplineSet
298 1213 m 1,0,1
 411 1257 411 1257 512 1280 c 128,-1,2
 613 1303 613 1303 698 1303 c 0,3,4
 895 1303 895 1303 989 1222 c 0,5,6
 1060 1161 1060 1161 1060 1062 c 0,7,8
 1060 1031 1060 1031 1053 996 c 0,9,10
 1030 880 1030 880 938 802.5 c 128,-1,11
 846 725 846 725 700 698 c 1,12,13
 860 676 860 676 933 584 c 0,14,15
 984 520 984 520 984 430 c 0,16,17
 984 392 984 392 975 348 c 1,18,19
 939 168 939 168 793 71.5 c 128,-1,20
 647 -25 647 -25 409 -25 c 0,21,22
 304 -25 304 -25 208 0 c 128,-1,23
 112 25 112 25 22 76 c 1,24,-1
 72 314 l 1,25,-1
 174 314 l 1,26,27
 171 291 171 291 171 270 c 0,28,29
 172 184 172 184 224 135 c 0,30,31
 290 74 290 74 431 74 c 0,32,33
 569 74 569 74 663.5 147 c 128,-1,34
 758 220 758 220 785 346 c 0,35,36
 795 392 795 392 795 431 c 0,37,38
 795 514 795 514 750 566 c 0,39,40
 684 640 684 640 525 640 c 2,41,-1
 440 640 l 1,42,-1
 458 743 l 1,43,-1
 503 743 l 2,44,45
 660 743 660 743 751.5 802.5 c 128,-1,46
 843 862 843 862 869 982 c 1,47,48
 875 1014 875 1014 875 1041 c 0,49,50
 874 1106 874 1106 838 1147 c 0,51,52
 786 1204 786 1204 664.5 1204 c 128,-1,53
 543 1204 543 1204 465 1152 c 0,54,55
 388 1100 388 1100 354 995 c 1,56,-1
 252 995 l 1,57,-1
 298 1213 l 1,0,1
EndSplineSet
EndChar

StartChar: four
Encoding: 15 52 15
Width: 1183
VWidth: 0
GlyphClass: 2
Flags: HW
HStem: 0 106<328 544 725 929> 344 108<152 591 792 1028> 1283 20G<785.366 958>
DStem2: 13 454 152 452 0.681673 0.731657<93.2893 945.164> 523.396 0 704.396 0 0.190809 0.981627<142.52 350.579 494.948 1095.24>
LayerCount: 2
Fore
SplineSet
612 452 m 1,0,-1
 733 1075 l 1,1,-1
 152 452 l 1,2,-1
 612 452 l 1,0,-1
929 0 m 1,3,-1
 310 0 l 1,4,-1
 328 106 l 1,5,-1
 544 106 l 1,6,-1
 591 344 l 1,7,-1
 -6 344 l 1,8,-1
 13 454 l 1,9,-1
 804 1303 l 1,10,-1
 958 1303 l 1,11,-1
 792 452 l 1,12,-1
 1047 452 l 1,13,-1
 1028 344 l 1,14,-1
 771 344 l 1,15,-1
 725 106 l 1,16,-1
 948 106 l 1,17,-1
 929 0 l 1,3,-1
EndSplineSet
EndChar

StartChar: five
Encoding: 16 53 16
Width: 1157
VWidth: 0
GlyphClass: 2
Flags: HW
HStem: -25 99<255.784 612.142> 730 100<384.486 738.38> 1116 164<400 1016>
VStem: 91 102<264.719 312> 814 172<301.967 654.426>
DStem2: 82.0416 -25 177.995 -25 0.190809 0.981627<814.945 1180.71>
LayerCount: 2
Fore
SplineSet
1045 1280 m 1,0,-1
 1016 1116 l 1,1,-1
 400 1116 l 1,2,-1
 330 757 l 1,3,4
 383 793 383 793 449 811.5 c 128,-1,5
 515 830 515 830 592 830 c 0,6,7
 810 830 810 830 912 716 c 0,8,9
 986 634 986 634 986 508 c 0,10,11
 986 459 986 459 975 403 c 0,12,13
 934 201 934 201 785 88 c 128,-1,14
 636 -25 636 -25 408 -25 c 0,15,16
 316 -25 316 -25 224.5 0 c 128,-1,17
 133 25 133 25 41 76 c 1,18,-1
 91 312 l 1,19,-1
 193 312 l 1,20,21
 189 287 189 287 189 264 c 0,22,23
 189 183 189 183 237 135 c 0,24,25
 298 74 298 74 432 74 c 0,26,27
 576 74 576 74 671.5 159 c 128,-1,28
 767 244 767 244 802 403 c 0,29,30
 814 460 814 460 814 508 c 0,31,32
 814 592 814 592 777 646 c 0,33,34
 719 730 719 730 575 730 c 0,35,36
 493 730 493 730 424.5 704 c 128,-1,37
 356 678 356 678 296 623 c 1,38,-1
 208 623 l 1,39,-1
 336 1280 l 1,40,-1
 1045 1280 l 1,0,-1
EndSplineSet
EndChar

StartChar: six
Encoding: 17 54 17
Width: 1172
VWidth: 0
GlyphClass: 2
Flags: HW
HStem: -25 99<407.963 704.582> 736 100<521.208 828.191> 1204 99<651.566 976.554>
VStem: 151 190<151.321 517.238> 893 189<302.403 670.156> 1027 102<997 1021.62>
LayerCount: 2
Fore
SplineSet
546 74 m 0,0,1
 673 74 673 74 759.5 159.5 c 128,-1,2
 846 245 846 245 880 405 c 0,3,4
 893 469 893 469 893 521 c 0,5,6
 893 598 893 598 863 650 c 0,7,8
 813 736 813 736 687 736 c 0,9,10
 558 736 558 736 473 653.5 c 128,-1,11
 388 571 388 571 355 415 c 0,12,13
 341 347 341 347 341 292 c 0,14,15
 342 214 342 214 370 162 c 0,16,17
 420 74 420 74 546 74 c 0,0,1
384 695 m 1,18,19
 458 766 458 766 542 801 c 128,-1,20
 626 836 626 836 723 836 c 0,21,22
 924 836 924 836 1017 720 c 0,23,24
 1082 640 1082 640 1082 519 c 0,25,26
 1082 467 1082 467 1070 406 c 0,27,28
 1030 211 1030 211 880.5 93 c 128,-1,29
 731 -25 731 -25 521 -25 c 0,30,31
 520 -25 520 -25 518 -25 c 0,32,33
 292 -25 292 -25 204 136 c 0,34,35
 151 232 151 232 151 377 c 0,36,37
 151 476 151 476 176 598 c 0,38,39
 244 934 244 934 427 1118.5 c 128,-1,40
 610 1303 610 1303 874 1303 c 0,41,42
 945 1303 945 1303 1020.5 1288 c 128,-1,43
 1096 1273 1096 1273 1172 1243 c 1,44,-1
 1129 997 l 1,45,-1
 1027 997 l 1,46,47
 1028 1010 1028 1010 1028 1022 c 0,48,49
 1028 1105 1028 1105 985 1151 c 0,50,51
 936 1204 936 1204 837 1204 c 0,52,53
 662 1204 662 1204 551 1079 c 128,-1,54
 440 954 440 954 384 695 c 1,18,19
EndSplineSet
EndChar

StartChar: seven
Encoding: 18 55 18
Width: 1185
VWidth: 0
GlyphClass: 2
Flags: HW
HStem: 0 21G<249 396.277> 1116 164<353 993>
VStem: 224 105<997 1102> 249 134<0 134>
DStem2: 249 0 383 0 0.553067 0.833137<74.111 1341.26>
LayerCount: 2
Fore
SplineSet
1165 1178 m 1,0,-1
 383 0 l 1,1,-1
 249 0 l 1,2,-1
 993 1116 l 1,3,-1
 353 1116 l 1,4,-1
 329 994 l 1,5,-1
 224 997 l 1,6,-1
 279 1280 l 1,7,-1
 1183 1280 l 1,8,-1
 1165 1178 l 1,0,-1
EndSplineSet
EndChar

StartChar: eight
Encoding: 19 56 19
Width: 1172
VWidth: 0
GlyphClass: 2
Flags: HW
HStem: -25 99<346.904 678.365> 629 100<498.544 767.272> 1204 99<578.168 881.484>
VStem: 90 191<139.127 448.357> 264 182<779.394 1065.62> 844 189<248.617 564.438> 933 182<869.46 1154.54>
LayerCount: 2
Fore
SplineSet
835 352 m 0,0,1
 844 396 844 396 844 433 c 0,2,3
 844 508 844 508 807 556 c 0,4,5
 752 628 752 628 622 628 c 0,6,-1
 620 629 l 0,7,8
 492 629 492 629 405 556 c 0,9,10
 318 483 318 483 290 352 c 0,11,12
 281 308 281 308 281 271 c 0,13,14
 281 196 281 196 318 147 c 0,15,16
 374 74 374 74 503.5 74 c 128,-1,17
 633 74 633 74 720 147 c 128,-1,18
 807 220 807 220 835 352 c 0,0,1
925 967 m 1,19,20
 933 1004 933 1004 933 1035 c 0,21,22
 933 1100 933 1100 900 1142 c 0,23,24
 851 1204 851 1204 740 1204 c 128,-1,25
 629 1204 629 1204 553.5 1141.5 c 128,-1,26
 478 1079 478 1079 453 967 c 1,27,28
 446 931 446 931 446 900 c 0,29,30
 446 834 446 834 479 792 c 0,31,32
 528 730 528 730 639 729 c 0,33,34
 751 729 751 729 826.5 791.5 c 128,-1,35
 902 854 902 854 925 967 c 1,19,20
769 680 m 1,36,37
 917 660 917 660 985 572 c 0,38,39
 1033 510 1033 510 1033 424 c 0,40,41
 1033 388 1033 388 1025 349 c 0,42,43
 989 169 989 169 849 72 c 128,-1,44
 709 -25 709 -25 486 -25 c 0,45,46
 264 -25 264 -25 164 72 c 0,47,48
 90 143 90 143 90 260 c 0,49,50
 90 302 90 302 100 349 c 0,51,52
 128 485 128 485 231.5 572.5 c 128,-1,53
 335 660 335 660 493 680 c 1,54,55
 362 703 362 703 304 778 c 0,56,57
 264 830 264 830 264 901 c 0,58,59
 264 935 264 935 271 970 c 0,60,61
 302 1125 302 1125 432 1214 c 128,-1,62
 562 1303 562 1303 757.5 1303 c 128,-1,63
 953 1303 953 1303 1046 1214 c 0,64,65
 1115 1148 1115 1148 1115 1045 c 0,66,67
 1115 1010 1115 1010 1107 970 c 0,68,69
 1084 853 1084 853 996 778 c 128,-1,70
 908 703 908 703 769 680 c 1,36,37
EndSplineSet
EndChar

StartChar: nine
Encoding: 20 57 20
Width: 1172
VWidth: 0
GlyphClass: 2
Flags: HW
HStem: -25 99<258.275 581.445> 441 99<406.224 711.062> 1204 99<524.956 825.964>
VStem: 104 101<200.318 283> 151 189<605.844 973.315> 893 188<760.289 1126.75>
LayerCount: 2
Fore
SplineSet
848 582 m 1,0,1
 775 511 775 511 690 476 c 128,-1,2
 605 441 605 441 507 441 c 0,3,4
 505 441 505 441 504 441 c 0,5,6
 307 441 307 441 215 556 c 0,7,8
 151 636 151 636 151 757 c 0,9,10
 151 811 151 811 164 872 c 0,11,12
 204 1068 204 1068 353.5 1185.5 c 128,-1,13
 503 1303 503 1303 713 1303 c 4,14,-1
 716 1303 l 0,15,16
 942 1303 942 1303 1029 1142 c 4,17,18
 1081 1047 1081 1047 1081 902 c 0,19,20
 1081 802 1081 802 1056 680 c 0,21,22
 988 344 988 344 805.5 159.5 c 128,-1,23
 623 -25 623 -25 360 -25 c 0,24,25
 289 -25 289 -25 213.5 -10 c 128,-1,26
 138 5 138 5 61 35 c 1,27,-1
 104 283 l 1,28,-1
 205 283 l 1,29,30
 205 274 205 274 205 265 c 0,31,32
 205 177 205 177 249 128 c 0,33,34
 298 74 298 74 396 74 c 0,35,36
 571 74 571 74 681.5 198 c 128,-1,37
 792 322 792 322 848 582 c 1,0,1
687 1204 m 0,38,39
 560 1204 560 1204 474 1118 c 0,40,41
 388 1032 388 1032 354 872 c 0,42,43
 340 807 340 807 340 754 c 0,44,45
 340 677 340 677 370 626 c 0,46,47
 420 540 420 540 547.5 540 c 128,-1,48
 675 540 675 540 760.5 623 c 128,-1,49
 846 706 846 706 879 862 c 0,50,51
 893 930 893 930 893 985 c 0,52,53
 893 1064 893 1064 864 1116 c 0,54,55
 814 1204 814 1204 687 1204 c 0,38,39
EndSplineSet
EndChar

StartChar: colon
Encoding: 21 58 21
Width: 620
VWidth: 0
GlyphClass: 2
Flags: HW
HStem: -25 267<191.436 339.217> 496 266<303.719 453.454>
VStem: 142 245<23.3984 192.765> 255 246<543.019 713.148>
LayerCount: 2
Fore
SplineSet
145 108 m 0,0,1
 155 164 155 164 196.5 203 c 128,-1,2
 238 242 238 242 288 242 c 128,-1,3
 338 242 338 242 366 203 c 0,4,5
 387 174 387 174 387 136 c 0,6,7
 387 122 387 122 384 108 c 0,8,9
 374 52 374 52 333 13.5 c 128,-1,10
 292 -25 292 -25 241 -25 c 0,11,12
 190 -24 190 -24 162 14 c 0,13,14
 142 42 142 42 142 79 c 0,15,16
 142 93 142 93 145 108 c 0,0,1
258 629 m 0,17,18
 268 685 268 685 309.5 723.5 c 128,-1,19
 351 762 351 762 401 762 c 0,20,21
 452 762 452 762 480 724 c 0,22,23
 501 696 501 696 501 658 c 0,24,25
 501 644 501 644 498 629 c 0,26,27
 488 572 488 572 447.5 534 c 128,-1,28
 407 496 407 496 355 496 c 0,29,30
 304 496 304 496 276 534 c 0,31,32
 255 562 255 562 255 601 c 0,33,34
 255 614 255 614 258 629 c 0,17,18
EndSplineSet
EndChar

StartChar: semicolon
Encoding: 22 59 22
Width: 621
VWidth: 0
GlyphClass: 2
Flags: HW
HStem: 514 267<319.63 467.564>
VStem: 210 184<50.4048 175> 272 244<562.264 733.869>
LayerCount: 2
Fore
SplineSet
-22 -191 m 1,0,1
 74 -132 74 -132 130.5 -51.5 c 128,-1,2
 187 29 187 29 210 143 c 2,3,-1
 217 175 l 1,4,-1
 394 175 l 1,5,6
 357 28 357 28 270.5 -77 c 128,-1,7
 184 -182 184 -182 36 -259 c 1,8,-1
 -22 -191 l 1,0,1
274 648 m 0,9,10
 284 704 284 704 325.5 742.5 c 128,-1,11
 367 781 367 781 417.5 781 c 128,-1,12
 468 781 468 781 496 742 c 0,13,14
 516 714 516 714 516 678 c 0,15,16
 516 662 516 662 514 648 c 0,17,18
 504 592 504 592 462.5 553 c 128,-1,19
 421 514 421 514 370.5 514 c 128,-1,20
 320 514 320 514 292 552 c 0,21,22
 272 581 272 581 272 620 c 0,23,24
 272 633 272 633 274 648 c 0,9,10
EndSplineSet
EndChar

StartChar: less
Encoding: 23 60 23
Width: 1544
VWidth: 0
GlyphClass: 2
Flags: HW
DStem2: 195 632 446 549 0.945103 0.326773<210.099 1165.81> 446 549 195 469 0.945103 -0.326773<0 955.381>
LayerCount: 2
Fore
SplineSet
1349 862 m 1,0,-1
 446 549 l 1,1,-1
 1349 237 l 1,2,-1
 1349 70 l 1,3,-1
 195 469 l 1,4,-1
 195 632 l 1,5,-1
 1349 1031 l 1,6,-1
 1349 862 l 1,0,-1
EndSplineSet
EndChar

StartChar: equal
Encoding: 24 61 24
Width: 1544
VWidth: 0
GlyphClass: 2
Flags: HW
HStem: 294 161<195 1349> 644 161<195 1349>
LayerCount: 2
Fore
SplineSet
195 805 m 1,0,-1
 1349 805 l 1,1,-1
 1349 644 l 1,2,-1
 195 644 l 1,3,-1
 195 805 l 1,0,-1
195 455 m 1,4,-1
 1349 455 l 1,5,-1
 1349 294 l 1,6,-1
 195 294 l 1,7,-1
 195 455 l 1,4,-1
EndSplineSet
EndChar

StartChar: greater
Encoding: 25 62 25
Width: 1544
VWidth: 0
GlyphClass: 2
Flags: HW
DStem2: 195 1031 195 864 0.945103 -0.326773<54.5711 1015.33> 195 237 195 70 0.945103 0.326773<0 960.433>
LayerCount: 2
Fore
SplineSet
195 864 m 1,0,-1
 195 1031 l 1,1,-1
 1349 632 l 1,2,-1
 1349 469 l 1,3,-1
 195 70 l 1,4,-1
 195 237 l 1,5,-1
 1103 550 l 1,6,-1
 195 864 l 1,0,-1
EndSplineSet
EndChar

StartChar: question
Encoding: 26 63 26
Width: 985
VWidth: 0
GlyphClass: 2
Flags: HW
HStem: -25 267<257.996 405.121> 1204 99<417.413 727.482>
VStem: 199 87<997 1064.86> 209 245<24 192.984> 327 111<358 469> 783 188<875.078 1149.61>
DStem2: 252.552 -25 363.747 -25 0.190809 0.981627<410.367 654.149>
LayerCount: 2
Fore
SplineSet
212 108 m 0,0,1
 222 164 222 164 263 203 c 128,-1,2
 304 242 304 242 355 242 c 0,3,4
 404 242 404 242 432 203 c 0,5,6
 453 174 453 174 454 136 c 0,7,8
 454 123 454 123 451 108 c 0,9,10
 442 53 442 53 400 14 c 128,-1,11
 358 -25 358 -25 309 -25 c 0,12,13
 258 -24 258 -24 230 14 c 0,14,15
 209 43 209 43 209 81 c 0,16,17
 210 94 210 94 212 108 c 0,0,1
244 1210 m 1,18,19
 348 1257 348 1257 437.5 1280 c 128,-1,20
 527 1303 527 1303 603 1303 c 0,21,22
 802 1302 802 1302 898 1216 c 0,23,24
 970 1151 970 1151 971 1052 c 0,25,26
 971 1019 971 1019 963 983 c 1,27,28
 930 824 930 824 810 723 c 128,-1,29
 690 622 690 622 481 578 c 1,30,-1
 438 357 l 1,31,-1
 327 358 l 1,32,-1
 381 638 l 1,33,34
 549 673 549 673 648.5 755 c 128,-1,35
 748 837 748 837 775 964 c 0,36,37
 783 999 783 999 783 1029 c 0,38,39
 783 1096 783 1096 747 1140 c 0,40,41
 695 1204 695 1204 582 1204 c 0,42,43
 479 1204 479 1204 402.5 1150.5 c 128,-1,44
 326 1097 326 1097 286 997 c 1,45,-1
 199 997 l 1,46,-1
 244 1210 l 1,18,19
EndSplineSet
EndChar

StartChar: at
Encoding: 27 64 27
Width: 1843
VWidth: 0
GlyphClass: 2
Flags: HW
HStem: -314 105<606.335 1091.23> 64 118<774.267 1013.07> 736 118<871.377 1147.82> 1138 106<872.215 1394.16>
VStem: 136 153<85.1172 566.949> 559 163<234.609 563.111> 1692 87<477.516 869.07>
DStem2: 1039.4 -314 1179.14 -314 0.190809 0.981627<523.799 542.976 589.236 891.626 1031.9 1169.38>
LayerCount: 2
Fore
SplineSet
1143 219 m 1,0,1
 1075 140 1075 140 1002 102 c 128,-1,2
 929 64 929 64 845 64 c 0,3,4
 687 64 687 64 611 174 c 0,5,6
 559 249 559 249 559 355 c 0,7,8
 559 404 559 404 570 460 c 0,9,10
 605 636 605 636 723.5 745 c 128,-1,11
 842 854 842 854 997 854 c 0,12,13
 1080 854 1080 854 1139 815.5 c 128,-1,14
 1198 777 1198 777 1236 699 c 1,15,-1
 1262 834 l 1,16,-1
 1402 834 l 1,17,-1
 1274 174 l 1,18,19
 1435 205 1435 205 1541.5 310.5 c 128,-1,20
 1648 416 1648 416 1681 575 c 0,21,22
 1692 631 1692 631 1692 683 c 0,23,24
 1692 718 1692 718 1687 752 c 0,25,26
 1674 836 1674 836 1628 907 c 0,27,28
 1556 1019 1556 1019 1431 1078.5 c 128,-1,29
 1306 1138 1306 1138 1145 1138 c 0,30,31
 1064 1138 1064 1138 981.5 1122 c 128,-1,32
 899 1106 899 1106 815 1073 c 0,33,34
 617 994 617 994 483 834 c 128,-1,35
 349 674 349 674 306 465 c 0,36,37
 289 382 289 382 289 307 c 0,38,39
 290 254 290 254 298 204 c 0,40,41
 318 85 318 85 385 -2 c 0,42,43
 462 -103 462 -103 585.5 -156 c 128,-1,44
 709 -209 709 -209 865 -209 c 0,45,46
 981 -209 981 -209 1088.5 -178.5 c 128,-1,47
 1196 -148 1196 -148 1296 -86 c 1,48,-1
 1331 -143 l 1,49,50
 1218 -229 1218 -229 1086.5 -271.5 c 128,-1,51
 955 -314 955 -314 808 -314 c 0,52,53
 643 -314 643 -314 505 -256.5 c 128,-1,54
 367 -199 367 -199 276 -92 c 0,55,56
 182 18 182 18 151 160 c 0,57,58
 136 229 136 229 136 302 c 0,59,60
 136 381 136 381 153 465 c 0,61,62
 185 624 185 624 274 765.5 c 128,-1,63
 363 907 363 907 500 1017 c 0,64,65
 636 1126 636 1126 803.5 1185 c 128,-1,66
 971 1244 971 1244 1146 1244 c 0,67,68
 1339 1244 1339 1244 1483 1173 c 128,-1,69
 1627 1102 1627 1102 1707 968 c 0,70,71
 1758 884 1758 884 1773 786 c 0,72,73
 1779 746 1779 746 1779 704 c 0,74,75
 1779 643 1779 643 1766 580 c 0,76,77
 1719 350 1719 350 1545 217 c 128,-1,78
 1371 84 1371 84 1116 81 c 1,79,-1
 1143 219 l 1,0,1
1181 416 m 1,80,-1
 1198 503 l 2,81,82
 1205 535 1205 535 1205 563 c 0,83,84
 1205 628 1205 628 1170 672 c 0,85,86
 1120 736 1120 736 1018 736 c 0,87,88
 911 736 911 736 835.5 663.5 c 128,-1,89
 760 591 760 591 733 459 c 0,90,91
 722 409 722 409 722 367 c 0,92,93
 722 298 722 298 750 254 c 0,94,95
 796 182 796 182 904 182 c 0,96,97
 1005 182 1005 182 1082 247 c 128,-1,98
 1159 312 1159 312 1181 416 c 1,80,-1
EndSplineSet
EndChar

StartChar: A
Encoding: 28 65 28
Width: 1347
VWidth: 0
GlyphClass: 2
Flags: HW
HStem: 0 106<-123 -5 113 235 766 915 1122 1235> 374 108<350 837> 1260 20G<722.394 882.157>
DStem2: -5 106 113 106 0.533234 0.845968<62.9216 379.757 507.382 1195.43> 878 1280 717 1064 0.203488 -0.979077<178.719 772.961 883.381 1156.97>
LayerCount: 2
Fore
SplineSet
350 482 m 1,0,-1
 837 482 l 1,1,-1
 717 1064 l 1,2,-1
 350 482 l 1,0,-1
-141 0 m 1,3,-1
 -123 106 l 1,4,-1
 -5 106 l 1,5,-1
 735 1280 l 5,6,-1
 878 1280 l 1,7,-1
 1122 106 l 1,8,-1
 1253 106 l 1,9,-1
 1235 0 l 1,10,-1
 748 0 l 1,11,-1
 766 106 l 1,12,-1
 915 106 l 1,13,-1
 860 374 l 1,14,-1
 282 374 l 1,15,-1
 113 106 l 1,16,-1
 253 106 l 1,17,-1
 235 0 l 1,18,-1
 -141 0 l 1,3,-1
EndSplineSet
EndChar

StartChar: B
Encoding: 29 66 29
Width: 1366
VWidth: 0
GlyphClass: 2
Flags: HW
HStem: 0 106<-11 160 344 830.47> 638 107<468 909.725> 1173 107<230 368 551 981.454>
VStem: 992 215<271.738 576.258> 1033 228<863.28 1124.61>
DStem2: 139.396 0 323.396 0 0.190809 0.981627<143.093 684.972 794.013 1195.07>
LayerCount: 2
Fore
SplineSet
344 106 m 1,0,-1
 613 106 l 2,1,2
 775 106 775 106 863.5 170 c 128,-1,3
 952 234 952 234 982 373 c 0,4,5
 992 418 992 418 992 455 c 0,6,7
 992 532 992 532 950 574 c 0,8,9
 888 638 888 638 722 638 c 2,10,-1
 447 638 l 1,11,-1
 344 106 l 1,0,-1
468 745 m 1,12,-1
 696 745 l 2,13,14
 844 745 844 745 923 796.5 c 128,-1,15
 1002 848 1002 848 1026 959 c 0,16,17
 1033 992 1033 992 1033 1019 c 0,18,19
 1033 1086 1033 1086 992 1122 c 0,20,21
 934 1173 934 1173 784 1173 c 2,22,-1
 551 1173 l 1,23,-1
 468 745 l 1,12,-1
-29 0 m 1,24,-1
 -11 106 l 1,25,-1
 160 106 l 1,26,-1
 368 1173 l 1,27,-1
 211 1173 l 1,28,-1
 230 1280 l 1,29,-1
 903 1280 l 2,30,31
 1108 1280 1108 1280 1196 1200 c 0,32,33
 1261 1141 1261 1141 1261 1037 c 0,34,35
 1261 1001 1261 1001 1253 959 c 1,36,37
 1230 846 1230 846 1143.5 779.5 c 128,-1,38
 1057 713 1057 713 913 698 c 1,39,40
 1083 678 1083 678 1155 594 c 0,41,42
 1207 534 1207 534 1207 444 c 0,43,44
 1207 409 1207 409 1199 370 c 0,45,46
 1160 180 1160 180 1014 90 c 128,-1,47
 868 0 868 0 598 0 c 2,48,-1
 -29 0 l 1,24,-1
EndSplineSet
EndChar

StartChar: C
Encoding: 30 67 30
Width: 1409
VWidth: 0
GlyphClass: 2
Flags: HW
HStem: -25 107<454.974 870.364> 1196 107<668.731 1108.3>
VStem: 110 200<256.776 720.538> 1238 102<891 960.736>
LayerCount: 2
Fore
SplineSet
1262 347 m 1,0,1
 1166 164 1166 164 1007.5 69.5 c 128,-1,2
 849 -25 849 -25 634 -25 c 0,3,4
 503 -25 503 -25 399.5 18 c 128,-1,5
 296 61 296 61 226 144 c 0,6,7
 144 240 144 240 120 362 c 0,8,9
 110 411 110 411 110 464 c 0,10,11
 110 469 110 469 110 474 c 0,12,13
 110 551 110 551 128 639 c 0,14,15
 189 937 189 937 407 1120 c 128,-1,16
 625 1303 625 1303 921 1303 c 0,17,18
 1031 1303 1031 1303 1149.5 1272 c 128,-1,19
 1268 1241 1268 1241 1399 1178 c 1,20,-1
 1340 891 l 1,21,-1
 1238 891 l 1,22,23
 1237 1048 1237 1048 1152.5 1122 c 128,-1,24
 1068 1196 1068 1196 887 1196 c 0,25,26
 672 1196 672 1196 531.5 1054.5 c 128,-1,27
 391 913 391 913 334 639 c 0,28,29
 310 525 310 525 310 433 c 0,30,31
 310 306 310 306 357 224 c 0,32,33
 438 82 438 82 653 82 c 0,34,35
 803 82 803 82 914.5 148.5 c 128,-1,36
 1026 215 1026 215 1097 347 c 1,37,-1
 1262 347 l 1,0,1
EndSplineSet
EndChar

StartChar: D
Encoding: 31 68 31
Width: 1490
VWidth: 0
GlyphClass: 2
Flags: HW
HStem: 0 106<-11 160 344 775.088> 1173 107<230 368 551 973.25>
VStem: 1183 218<542.077 986.065>
DStem2: 139.396 0 323.396 0 0.190809 0.981627<143.093 1195.07>
LayerCount: 2
Fore
SplineSet
344 106 m 1,0,-1
 511 106 l 2,1,2
 773 106 773 106 942 244 c 0,3,4
 1112 384 1112 384 1166 642 c 0,5,6
 1183 722 1183 722 1183 789 c 0,7,8
 1183 793 1183 793 1183 796 c 0,9,10
 1182 944 1182 944 1106 1036 c 0,11,12
 992 1172 992 1172 723 1173 c 2,13,-1
 551 1173 l 1,14,-1
 344 106 l 1,0,-1
-29 0 m 1,15,-1
 -11 106 l 1,16,-1
 160 106 l 1,17,-1
 368 1173 l 1,18,-1
 211 1173 l 1,19,-1
 230 1280 l 1,20,-1
 772 1280 l 2,21,22
 1124 1280 1124 1280 1284 1111 c 0,23,24
 1400 989 1400 989 1401 797 c 0,25,26
 1401 724 1401 724 1384 641 c 1,27,28
 1322 339 1322 339 1091 169.5 c 128,-1,29
 860 0 860 0 511 0 c 2,30,-1
 -29 0 l 1,15,-1
EndSplineSet
EndChar

StartChar: E
Encoding: 32 69 32
Width: 1359
VWidth: 0
GlyphClass: 2
Flags: HW
HStem: 0 123<347 992> 0 106<-11 160> 630 123<470 897> 1157 123<548 1193> 1173 107<230 368>
VStem: 874 111<511 622> 961 111<847 958> 1026 111<186 297> 1158 111<976 1087>
DStem2: 139.396 0 323.091 0 0.190809 0.981627<160.353 676.928 802.248 1195.07> 774.672 0 885.866 0 0.190809 0.981627<540.762 641.766 767.086 975.952> 968.091 0 1079 0 0.190809 0.981627<125.302 302.593 1015.48 1178.66>
LayerCount: 2
Fore
SplineSet
-29 0 m 1,0,-1
 -11 106 l 1,1,-1
 160 106 l 1,2,-1
 368 1173 l 1,3,-1
 211 1173 l 1,4,-1
 230 1280 l 1,5,-1
 1328 1280 l 1,6,-1
 1269 976 l 1,7,-1
 1158 976 l 1,8,-1
 1193 1157 l 1,9,-1
 548 1157 l 1,10,-1
 470 753 l 1,11,-1
 921 753 l 1,12,-1
 961 958 l 1,13,-1
 1072 958 l 1,14,-1
 985 510 l 1,15,-1
 874 511 l 1,16,-1
 897 630 l 1,17,-1
 446 630 l 1,18,-1
 347 123 l 1,19,-1
 992 123 l 1,20,-1
 1026 297 l 1,21,-1
 1137 297 l 1,22,-1
 1079 0 l 1,23,-1
 -29 0 l 1,0,-1
EndSplineSet
EndChar

StartChar: F
Encoding: 33 70 33
Width: 1284
VWidth: 0
GlyphClass: 2
Flags: HW
HStem: 0 106<-11 160 344 547> 629 123<469 921> 1157 123<548 1203> 1173 107<230 368>
VStem: 899 111<513 624> 986 111<850 961>
DStem2: 139.396 0 323.396 0 0.190809 0.981627<143.093 675.756 801.075 1195.07> 799.283 0 910.477 0 0.190809 0.981627<542.8 640.668 765.988 978.971>
LayerCount: 2
Fore
SplineSet
-29 0 m 1,0,-1
 -11 106 l 1,1,-1
 160 106 l 1,2,-1
 368 1173 l 1,3,-1
 211 1173 l 1,4,-1
 230 1280 l 1,5,-1
 1338 1280 l 1,6,-1
 1293 1049 l 1,7,-1
 1182 1049 l 1,8,-1
 1203 1157 l 1,9,-1
 548 1157 l 1,10,-1
 469 752 l 1,11,-1
 945 752 l 1,12,-1
 986 961 l 1,13,-1
 1097 960 l 1,14,-1
 1010 512 l 1,15,-1
 899 513 l 1,16,-1
 921 629 l 1,17,-1
 445 629 l 1,18,-1
 344 106 l 1,19,-1
 566 106 l 1,20,-1
 547 0 l 1,21,-1
 -29 0 l 1,0,-1
EndSplineSet
EndChar

StartChar: G
Encoding: 34 71 34
Width: 1486
VWidth: 0
GlyphClass: 2
Flags: HW
HStem: -25 107<511.464 1002.8> 487 108<952 1182> 1196 107<721.533 1182.17>
VStem: 147 203<252.938 722.421> 1309 101<895 963.39>
DStem2: 1082.51 -25.0055 1265.81 -25.0055 0.190809 0.981627<171.941 521.582>
LayerCount: 2
Fore
SplineSet
1309 895 m 1,0,1
 1310 1049 1310 1049 1224.5 1122.5 c 128,-1,2
 1139 1196 1139 1196 958 1196 c 0,3,4
 723 1196 723 1196 577.5 1057.5 c 128,-1,5
 432 919 432 919 373 639 c 0,6,7
 350 530 350 530 350 443 c 0,8,9
 350 309 350 309 404 223 c 0,10,11
 493 82 493 82 725 82 c 0,12,13
 828 82 828 82 927.5 105 c 128,-1,14
 1027 128 1027 128 1121 173 c 1,15,-1
 1182 487 l 1,16,-1
 933 487 l 1,17,-1
 952 595 l 1,18,-1
 1386 595 l 1,19,-1
 1294 120 l 1,20,21
 1159 47 1159 47 1012 11 c 128,-1,22
 865 -25 865 -25 706 -25 c 0,23,24
 704 -25 704 -25 703 -25 c 0,25,26
 398 -25 398 -25 251 156 c 0,27,28
 147 285 147 285 147 475 c 0,29,30
 147 552 147 552 164 639 c 0,31,32
 227 942 227 942 450 1122.5 c 128,-1,33
 673 1303 673 1303 987 1303 c 0,34,35
 1104 1303 1104 1303 1222.5 1274 c 128,-1,36
 1341 1245 1341 1245 1471 1186 c 1,37,-1
 1410 895 l 1,38,-1
 1309 895 l 1,0,1
EndSplineSet
EndChar

StartChar: H
Encoding: 35 72 35
Width: 1610
VWidth: 0
GlyphClass: 2
Flags: HW
HStem: 0 106<-11 160 344 500 888 1059 1242 1398> 630 123<469 1161> 1173 107<230 368 551 722 1129 1267 1449 1620>
DStem2: 139.396 0 323.396 0 0.190809 0.981627<143.093 676.737 802.057 1195.07> 1038.4 0 1221.4 0 0.190809 0.981627<142.902 641.819 767.139 1195.07>
LayerCount: 2
Fore
SplineSet
-29 0 m 1,0,-1
 -11 106 l 1,1,-1
 160 106 l 1,2,-1
 368 1173 l 1,3,-1
 211 1173 l 1,4,-1
 230 1280 l 1,5,-1
 741 1280 l 1,6,-1
 722 1173 l 1,7,-1
 551 1173 l 1,8,-1
 469 753 l 1,9,-1
 1185 753 l 1,10,-1
 1267 1173 l 1,11,-1
 1109 1173 l 1,12,-1
 1129 1280 l 1,13,-1
 1639 1280 l 1,14,-1
 1620 1173 l 1,15,-1
 1449 1173 l 1,16,-1
 1242 106 l 1,17,-1
 1417 106 l 1,18,-1
 1398 0 l 1,19,-1
 870 0 l 1,20,-1
 888 106 l 1,21,-1
 1059 106 l 1,22,-1
 1161 630 l 1,23,-1
 445 630 l 1,24,-1
 344 106 l 1,25,-1
 518 106 l 1,26,-1
 500 0 l 1,27,-1
 -29 0 l 1,0,-1
EndSplineSet
EndChar

StartChar: I
Encoding: 36 73 36
Width: 712
VWidth: 0
GlyphClass: 2
Flags: HW
HStem: 0 106<-11 160 344 500> 1173 107<230 368 551 722>
DStem2: 139.396 0 323.396 0 0.190809 0.981627<143.093 1195.07>
LayerCount: 2
Fore
SplineSet
344 106 m 1,0,-1
 519 106 l 1,1,-1
 500 0 l 1,2,-1
 -29 0 l 1,3,-1
 -11 106 l 1,4,-1
 160 106 l 1,5,-1
 368 1173 l 1,6,-1
 211 1173 l 1,7,-1
 230 1280 l 1,8,-1
 741 1280 l 1,9,-1
 722 1173 l 1,10,-1
 551 1173 l 1,11,-1
 344 106 l 1,0,-1
EndSplineSet
EndChar

StartChar: J
Encoding: 37 74 37
Width: 728
VWidth: 0
GlyphClass: 2
Flags: HW
HStem: -365 107<-149.38 105.398> 1173 107<269 440 622 793>
VStem: -270 104<-140.312 -93>
DStem2: 141.043 -365 323.498 -365 0.190809 0.981627<197.965 1566.79>
LayerCount: 2
Fore
SplineSet
-310 -297 m 1,0,-1
 -270 -93 l 1,1,-1
 -166 -93 l 1,2,3
 -170 -119 -170 -119 -170 -141 c 0,4,5
 -170 -189 -170 -189 -149 -217 c 0,6,7
 -118 -258 -118 -258 -38 -258 c 0,8,9
 70 -258 70 -258 126 -195 c 128,-1,10
 182 -132 182 -132 222 51 c 2,11,-1
 440 1173 l 1,12,-1
 250 1173 l 1,13,-1
 269 1280 l 1,14,-1
 812 1280 l 1,15,-1
 793 1173 l 1,16,-1
 622 1173 l 1,17,-1
 403 44 l 2,18,19
 359 -172 359 -172 250 -268.5 c 128,-1,20
 141 -365 141 -365 -59 -365 c 0,21,22
 -123 -365 -123 -365 -186.5 -348 c 128,-1,23
 -250 -331 -250 -331 -310 -297 c 1,0,-1
EndSplineSet
EndChar

StartChar: K
Encoding: 38 75 38
Width: 1415
VWidth: 0
GlyphClass: 2
Flags: HW
HStem: 0 106<-11 160 344 502 1172 1307> 1173 107<230 368 551 722 1040 1162 1334 1485>
DStem2: 139.396 0 323.396 0 0.190809 0.981627<143.093 659.477 746.159 1195.07> 638 703 442 613 0.66715 -0.744923<0 759.185> 459 698 638 703 0.828589 0.559857<151.117 848.43>
LayerCount: 2
Fore
SplineSet
-29 0 m 1,0,-1
 -11 106 l 1,1,-1
 160 106 l 1,2,-1
 368 1173 l 1,3,-1
 211 1173 l 1,4,-1
 230 1280 l 1,5,-1
 741 1280 l 1,6,-1
 722 1173 l 1,7,-1
 551 1173 l 1,8,-1
 459 698 l 1,9,-1
 1162 1173 l 1,10,-1
 1021 1173 l 1,11,-1
 1040 1280 l 1,12,-1
 1504 1280 l 1,13,-1
 1485 1173 l 1,14,-1
 1334 1173 l 1,15,-1
 638 703 l 1,16,-1
 1172 106 l 1,17,-1
 1325 106 l 1,18,-1
 1307 0 l 1,19,-1
 991 0 l 1,20,-1
 442 613 l 1,21,-1
 344 106 l 1,22,-1
 520 106 l 1,23,-1
 502 0 l 1,24,-1
 -29 0 l 1,0,-1
EndSplineSet
EndChar

StartChar: L
Encoding: 39 76 39
Width: 1236
VWidth: 0
GlyphClass: 2
Flags: HW
HStem: 0 123<347 974> 0 106<-11 160> 1173 107<230 368 552 723>
VStem: 1016 111<226 337>
DStem2: 139.396 0 323.091 0 0.190809 0.981627<160.353 1195.07> 950.091 0 1061 0 0.190809 0.981627<125.302 343.384>
LayerCount: 2
Fore
SplineSet
-29 0 m 1,0,-1
 -11 106 l 1,1,-1
 160 106 l 1,2,-1
 368 1173 l 1,3,-1
 211 1173 l 1,4,-1
 230 1280 l 1,5,-1
 741 1280 l 1,6,-1
 723 1173 l 1,7,-1
 552 1173 l 1,8,-1
 347 123 l 1,9,-1
 974 123 l 1,10,-1
 1016 337 l 1,11,-1
 1127 337 l 1,12,-1
 1061 0 l 1,13,-1
 -29 0 l 1,0,-1
EndSplineSet
EndChar

StartChar: M
Encoding: 40 77 40
Width: 1909
VWidth: 0
GlyphClass: 2
Flags: HW
HStem: 0 106<-11 160 271 429 1186 1357 1541 1700> 1173 107<221 368 1748 1927>
DStem2: 139.396 0 250.396 0 0.190809 0.981627<129.164 1160.16> 621 1280 468 1118 0.315297 -0.948993<105.496 948.368> 920 380 900 200 0.594265 0.804269<0 891.045> 1336.4 0 1520.4 0 0.190809 0.981627<143.093 1051.32>
LayerCount: 2
Fore
SplineSet
-29 0 m 1,0,-1
 -11 106 l 1,1,-1
 160 106 l 1,2,-1
 368 1173 l 1,3,-1
 202 1173 l 1,4,-1
 221 1280 l 1,5,-1
 621 1280 l 1,6,-1
 920 380 l 1,7,-1
 1585 1280 l 1,8,-1
 1946 1280 l 1,9,-1
 1927 1173 l 1,10,-1
 1748 1173 l 1,11,-1
 1541 106 l 1,12,-1
 1718 106 l 1,13,-1
 1700 0 l 1,14,-1
 1168 0 l 1,15,-1
 1186 106 l 1,16,-1
 1357 106 l 1,17,-1
 1537 1032 l 1,18,-1
 900 200 l 1,19,-1
 773 200 l 1,20,-1
 468 1118 l 1,21,-1
 271 106 l 1,22,-1
 448 106 l 1,23,-1
 429 0 l 1,24,-1
 -29 0 l 1,0,-1
EndSplineSet
EndChar

StartChar: N
Encoding: 41 78 41
Width: 1622
VWidth: 0
GlyphClass: 2
Flags: HW
HStem: -25 21G<1133.47 1245.89> 0 106<-20 161 272 439> 1173 107<222 369 1218 1364 1475 1656>
DStem2: 135.536 -25 246.536 -25 0.190809 0.981627<154.632 1136.79> 574 1280 460 1070 0.530903 -0.847433<117.438 1165.89> 1131.38 -25 1242 -25 0.190809 0.981627<322.933 1220.38>
LayerCount: 2
Fore
SplineSet
-38 0 m 1,0,-1
 -20 106 l 1,1,-1
 161 106 l 1,2,-1
 369 1173 l 1,3,-1
 203 1173 l 1,4,-1
 222 1280 l 1,5,-1
 574 1280 l 1,6,-1
 1193 292 l 1,7,-1
 1364 1173 l 1,8,-1
 1199 1173 l 1,9,-1
 1218 1280 l 1,10,-1
 1675 1280 l 1,11,-1
 1656 1173 l 1,12,-1
 1475 1173 l 1,13,-1
 1242 -25 l 1,14,-1
 1146 -25 l 1,15,-1
 460 1070 l 1,16,-1
 272 106 l 1,17,-1
 458 106 l 1,18,-1
 439 0 l 1,19,-1
 -38 0 l 1,0,-1
EndSplineSet
EndChar

StartChar: O
Encoding: 42 79 42
Width: 1510
VWidth: 0
GlyphClass: 2
Flags: HW
HStem: -25 107<458.904 885.622> 1196 107<673.762 1100.55>
VStem: 110 200<256.776 721.942> 1250 201<555.665 1027.22>
LayerCount: 2
Fore
SplineSet
663 82 m 0,0,1
 883 82 883 82 1025.5 222.5 c 128,-1,2
 1168 363 1168 363 1226 639 c 0,3,4
 1250 753 1250 753 1250 843 c 0,5,6
 1250 974 1250 974 1201 1056 c 0,7,8
 1118 1196 1118 1196 897 1196 c 128,-1,9
 676 1196 676 1196 533.5 1055.5 c 128,-1,10
 391 915 391 915 334 639 c 0,11,12
 310 526 310 526 310 435 c 0,13,14
 310 306 310 306 359 223 c 0,15,16
 442 82 442 82 663 82 c 0,0,1
644 -25 m 0,17,18
 507 -25 507 -25 401.5 18 c 128,-1,19
 296 61 296 61 226 144 c 0,20,21
 144 240 144 240 120 362 c 0,22,23
 110 411 110 411 110 464 c 0,24,25
 110 469 110 469 110 474 c 0,26,27
 110 550 110 550 128 638 c 0,28,29
 160 794 160 794 233.5 916 c 128,-1,30
 307 1038 307 1038 427 1134 c 0,31,32
 532 1218 532 1218 655 1260.5 c 128,-1,33
 778 1303 778 1303 916 1303 c 0,34,35
 1208 1302 1208 1302 1351 1120 c 0,36,37
 1451 992 1451 992 1451 807 c 0,38,39
 1451 728 1451 728 1433 639 c 0,40,41
 1402 486 1402 486 1327 362.5 c 128,-1,42
 1252 239 1252 239 1132 144 c 0,43,44
 1027 60 1027 60 904.5 17.5 c 128,-1,45
 782 -25 782 -25 644 -25 c 0,17,18
EndSplineSet
EndChar

StartChar: P
Encoding: 43 80 43
Width: 1231
VWidth: 0
GlyphClass: 2
Flags: HW
HStem: 0 106<-11 160 344 535> 552 108<451 870.958> 1173 107<230 368 551 960.053>
VStem: 1026 205<817.163 1112.04>
DStem2: 139.396 0 323.396 0 0.190809 0.981627<143.093 597.308 707.331 1195.07>
LayerCount: 2
Fore
SplineSet
451 660 m 1,0,-1
 689 660 l 2,1,2
 823 660 823 660 907 726 c 128,-1,3
 991 792 991 792 1017 916 c 0,4,5
 1026 956 1026 956 1026 990 c 0,6,7
 1026 1062 1026 1062 987 1107 c 0,8,9
 930 1173 930 1173 793 1173 c 2,10,-1
 551 1173 l 1,11,-1
 451 660 l 1,0,-1
-29 0 m 1,12,-1
 -11 106 l 1,13,-1
 160 106 l 1,14,-1
 368 1173 l 1,15,-1
 211 1173 l 1,16,-1
 230 1280 l 1,17,-1
 861 1280 l 2,18,19
 1061 1280 1061 1280 1159 1182 c 0,20,21
 1231 1109 1231 1109 1231 999 c 0,22,23
 1231 960 1231 960 1222 916 c 0,24,25
 1189 750 1189 750 1051.5 651 c 128,-1,26
 914 552 914 552 712 552 c 2,27,-1
 430 552 l 1,28,-1
 344 106 l 1,29,-1
 554 106 l 1,30,-1
 535 0 l 1,31,-1
 -29 0 l 1,12,-1
EndSplineSet
EndChar

StartChar: Q
Encoding: 44 81 44
Width: 1512
VWidth: 0
GlyphClass: 2
Flags: HW
HStem: -281 185<870.011 1251> -25 107<460.723 688.008> 1196 107<676.477 1103.37>
VStem: 112 201<247.771 725.032> 1252 202<555.734 1027.1>
LayerCount: 2
Fore
SplineSet
669 -25 m 1,0,1
 360 -25 360 -25 213 156 c 0,2,3
 112 281 112 281 112 466 c 0,4,5
 112 549 112 549 130 639 c 0,6,7
 162 794 162 794 236 916 c 128,-1,8
 310 1038 310 1038 430 1134 c 0,9,10
 535 1218 535 1218 657.5 1260.5 c 128,-1,11
 780 1303 780 1303 919 1303 c 0,12,13
 1212 1303 1212 1303 1354 1121 c 0,14,15
 1454 993 1454 993 1454 808 c 0,16,17
 1454 729 1454 729 1436 640 c 0,18,19
 1384 387 1384 387 1213.5 214.5 c 128,-1,20
 1043 42 1043 42 795 -8 c 1,21,22
 832 -53 832 -53 896 -74.5 c 128,-1,23
 960 -96 960 -96 1058 -96 c 2,24,-1
 1283 -96 l 1,25,-1
 1251 -281 l 1,26,-1
 1145 -281 l 2,27,28
 906 -281 906 -281 808 -199 c 1,29,30
 710 -133 710 -133 669 -25 c 1,0,1
666 82 m 128,-1,32
 887 82 887 82 1029 222.5 c 128,-1,33
 1171 363 1171 363 1228 639 c 0,34,35
 1251 752 1251 752 1252 843 c 0,36,37
 1252 972 1252 972 1203 1055 c 0,38,39
 1120 1196 1120 1196 900 1196 c 0,40,41
 679 1196 679 1196 536.5 1055.5 c 128,-1,42
 394 915 394 915 336 639 c 0,43,44
 313 526 313 526 313 435 c 0,45,46
 313 306 313 306 361 222 c 0,47,31
 445 82 445 82 666 82 c 128,-1,32
EndSplineSet
EndChar

StartChar: R
Encoding: 45 82 45
Width: 1409
VWidth: 0
GlyphClass: 2
Flags: HW
HStem: 0 106<-11 160 344 521 1178 1323> 586 108<458 786.551> 1173 107<230 368 551 997.129>
VStem: 1048 241<833.926 1123.71>
DStem2: 139.396 0 323.396 0 0.190809 0.981627<143.093 632.019 742.042 1195.07> 1178 106 872 407 0.319021 -0.947748<-540.284 0>
LayerCount: 2
Fore
SplineSet
899 632 m 1,0,1
 959 616 959 616 996.5 577 c 128,-1,2
 1034 538 1034 538 1056 468 c 2,3,-1
 1178 106 l 1,4,-1
 1341 106 l 1,5,-1
 1323 0 l 1,6,-1
 1009 0 l 1,7,-1
 872 407 l 2,8,9
 834 520 834 520 788 553 c 128,-1,10
 742 586 742 586 649 586 c 2,11,-1
 437 586 l 1,12,-1
 344 106 l 1,13,-1
 540 106 l 1,14,-1
 521 0 l 1,15,-1
 -29 0 l 1,16,-1
 -11 106 l 1,17,-1
 160 106 l 1,18,-1
 368 1173 l 1,19,-1
 211 1173 l 1,20,-1
 230 1280 l 1,21,-1
 931 1280 l 2,22,23
 1133 1280 1133 1280 1223 1190 c 0,24,25
 1289 1124 1289 1124 1289 1017 c 0,26,27
 1289 979 1289 979 1281 936 c 0,28,29
 1253 803 1253 803 1157 727 c 128,-1,30
 1061 651 1061 651 899 632 c 1,0,1
458 694 m 1,31,-1
 723 694 l 2,32,33
 859 694 859 694 936 752 c 0,34,35
 1014 810 1014 810 1040 934 c 0,36,37
 1048 971 1048 971 1048 1002 c 0,38,39
 1048 1005 1048 1005 1048 1009 c 0,40,41
 1048 1077 1048 1077 1013 1115 c 0,42,43
 960 1173 960 1173 821 1173 c 2,44,-1
 551 1173 l 1,45,-1
 458 694 l 1,31,-1
EndSplineSet
EndChar

StartChar: S
Encoding: 46 83 46
Width: 1262
VWidth: 0
GlyphClass: 2
Flags: HW
HStem: -25 107<290.015 735.587> 1196 107<525.111 947.526>
VStem: 112 104<291.75 360> 211 186<859.969 1057.95> 885 192<247.611 446.405> 1023 102<946 983.437>
DStem2: 645 762 496 577 0.959089 -0.283105<-232.813 293.391>
LayerCount: 2
Fore
SplineSet
53 76 m 1,0,-1
 112 361 l 1,1,-1
 216 360 l 1,2,3
 209 322 209 322 209 287 c 0,4,5
 209 199 209 199 260 150 c 0,6,7
 330 82 330 82 502 82 c 0,8,9
 662 82 662 82 759 138.5 c 128,-1,10
 856 195 856 195 879 304 c 0,11,12
 885 332 885 332 885 355 c 0,13,14
 885 406 885 406 857 438 c 0,15,16
 816 484 816 484 662 528 c 2,17,-1
 496 577 l 2,18,19
 314 634 314 634 252 719 c 0,20,21
 211 776 211 776 211 860 c 0,22,23
 211 905 211 905 220 952 c 0,24,25
 253 1119 253 1119 393.5 1211 c 128,-1,26
 534 1303 534 1303 753 1303 c 0,27,28
 847 1303 847 1303 954.5 1280.5 c 128,-1,29
 1062 1258 1062 1258 1180 1215 c 1,30,-1
 1125 946 l 1,31,-1
 1023 946 l 1,32,33
 1025 966 1025 966 1025 984 c 0,34,35
 1025 1087 1025 1087 968 1137 c 0,36,37
 901 1196 901 1196 738 1196 c 0,38,39
 596 1196 596 1196 510.5 1144 c 128,-1,40
 425 1092 425 1092 403 994 c 0,41,42
 397 968 397 968 397 946 c 0,43,44
 397 893 397 893 429 859 c 0,45,46
 474 810 474 810 645 762 c 2,47,-1
 802 716 l 2,48,49
 974 663 974 663 1035 580 c 0,50,51
 1077 523 1077 523 1077 440 c 0,52,53
 1077 402 1077 402 1068 358 c 0,54,55
 1030 168 1030 168 886 71.5 c 128,-1,56
 742 -25 742 -25 494 -25 c 0,57,58
 383 -25 383 -25 273 0 c 128,-1,59
 163 25 163 25 53 76 c 1,0,-1
EndSplineSet
EndChar

StartChar: T
Encoding: 47 84 47
Width: 1233
VWidth: 0
GlyphClass: 2
Flags: HW
HStem: 0 106<247 419 601 757> 1161 119<232 624 806 1212>
VStem: 87 111<990 1101> 1188 111<1042 1153>
DStem2: -105.437 0 5.75787 0 0.190809 0.981627<1028.73 1204.06> 398.396 0 580.396 0 0.190809 0.981627<142.711 1182.72>
LayerCount: 2
Fore
SplineSet
229 0 m 1,0,-1
 247 106 l 1,1,-1
 419 106 l 1,2,-1
 624 1161 l 1,3,-1
 232 1161 l 1,4,-1
 198 989 l 1,5,-1
 87 990 l 1,6,-1
 144 1280 l 1,7,-1
 1346 1280 l 1,8,-1
 1299 1041 l 1,9,-1
 1188 1042 l 1,10,-1
 1212 1161 l 1,11,-1
 806 1161 l 1,12,-1
 601 106 l 1,13,-1
 776 106 l 1,14,-1
 757 0 l 1,15,-1
 229 0 l 1,0,-1
EndSplineSet
EndChar

StartChar: U
Encoding: 48 85 48
Width: 1557
VWidth: 0
GlyphClass: 2
Flags: HW
HStem: -25 131<515.462 970.288> 1173 107<246 386 568 740 1196 1333 1444 1615>
VStem: 236 185<190.947 629.703>
DStem2: 153.035 -25 334.925 -25 0.190809 0.981627<418.781 1220.44> 1100.92 -25 1211.03 -25 0.190809 0.981627<301.389 1220.27>
LayerCount: 2
Fore
SplineSet
386 1173 m 1,0,-1
 227 1173 l 1,1,-1
 246 1280 l 1,2,-1
 759 1280 l 1,3,-1
 740 1173 l 1,4,-1
 568 1173 l 1,5,-1
 443 531 l 1,6,7
 421 428 421 428 421 347 c 0,8,9
 421 253 421 253 458 200 c 0,10,11
 524 106 524 106 735 106 c 128,-1,12
 946 106 946 106 1051.5 200 c 128,-1,13
 1157 294 1157 294 1209 531 c 2,14,-1
 1333 1173 l 1,15,-1
 1177 1173 l 1,16,-1
 1196 1280 l 1,17,-1
 1634 1280 l 1,18,-1
 1615 1173 l 1,19,-1
 1444 1173 l 1,20,-1
 1316 515 l 2,21,22
 1256 220 1256 220 1111 97.5 c 128,-1,23
 966 -25 966 -25 678.5 -25 c 128,-1,24
 391 -25 391 -25 295 98 c 0,25,26
 236 174 236 174 236 316 c 0,27,28
 236 403 236 403 258 515 c 2,29,-1
 386 1173 l 1,0,-1
EndSplineSet
EndChar

StartChar: V
Encoding: 49 86 49
Width: 1354
VWidth: 0
GlyphClass: 2
Flags: HW
HStem: 0 21G<464.891 634.617> 1173 107<112 228 435 585 1109 1245 1362 1493>
DStem2: 435 1173 228 1173 0.201252 -0.979539<0 988.243> 634 205 622 0 0.533559 0.845763<0 1144.7>
LayerCount: 2
Fore
SplineSet
435 1173 m 1,0,-1
 634 205 l 1,1,-1
 1245 1173 l 1,2,-1
 1090 1173 l 1,3,-1
 1109 1280 l 1,4,-1
 1512 1280 l 1,5,-1
 1493 1173 l 1,6,-1
 1362 1173 l 1,7,-1
 622 0 l 1,8,-1
 469 0 l 1,9,-1
 228 1173 l 1,10,-1
 94 1173 l 1,11,-1
 112 1280 l 1,12,-1
 603 1280 l 1,13,-1
 585 1173 l 1,14,-1
 435 1173 l 1,0,-1
EndSplineSet
EndChar

StartChar: W
Encoding: 50 87 50
Width: 1940
VWidth: 0
GlyphClass: 2
Flags: HW
HStem: 0 21G<365.073 524.465 1152.06 1311.47> 1173 107<140 254 444 611 1670 1812 1915 2047>
DStem2: 444 1173 254 1173 0.0958903 -0.995392<0 938.326> 534 239 514 0 0.463816 0.885931<0 943.728> 1215 1280 1054 1032 0.0964148 -0.995341<231.322 1057.93> 1317 227 1301 0 0.463753 0.885965<0 1067.68>
LayerCount: 2
Fore
SplineSet
1301 0 m 1,0,-1
 1154 0 l 1,1,-1
 1054 1032 l 1,2,-1
 514 0 l 1,3,-1
 367 0 l 1,4,-1
 254 1173 l 1,5,-1
 121 1173 l 1,6,-1
 140 1280 l 1,7,-1
 630 1280 l 1,8,-1
 611 1173 l 1,9,-1
 444 1173 l 1,10,-1
 534 239 l 1,11,-1
 1079 1280 l 1,12,-1
 1215 1280 l 1,13,-1
 1317 227 l 1,14,-1
 1812 1173 l 1,15,-1
 1651 1173 l 1,16,-1
 1670 1280 l 1,17,-1
 2066 1280 l 1,18,-1
 2047 1173 l 1,19,-1
 1915 1173 l 1,20,-1
 1301 0 l 1,0,-1
EndSplineSet
EndChar

StartChar: X
Encoding: 51 88 51
Width: 1347
VWidth: 0
GlyphClass: 2
Flags: HW
HStem: 0 106<-102 53 180 319 671 831 1070 1195> 1173 107<147 272 511 669 941 1110 1238 1389>
DStem2: 53 106 180 106 0.704106 0.710095<89.4214 694.001 944.704 1501.91> 511 1173 272 1173 0.464069 -0.885799<0 446.839 609.226 1093.65>
LayerCount: 2
Fore
SplineSet
606 535 m 1,0,-1
 180 106 l 1,1,-1
 338 106 l 1,2,-1
 319 0 l 1,3,-1
 -120 0 l 1,4,-1
 -102 106 l 1,5,-1
 53 106 l 1,6,-1
 562 619 l 1,7,-1
 272 1173 l 1,8,-1
 128 1173 l 1,9,-1
 147 1280 l 1,10,-1
 688 1280 l 1,11,-1
 669 1173 l 1,12,-1
 511 1173 l 1,13,-1
 718 777 l 1,14,-1
 1110 1173 l 1,15,-1
 922 1173 l 1,16,-1
 941 1280 l 1,17,-1
 1408 1280 l 1,18,-1
 1389 1173 l 1,19,-1
 1238 1173 l 1,20,-1
 762 693 l 1,21,-1
 1070 106 l 1,22,-1
 1214 106 l 1,23,-1
 1195 0 l 1,24,-1
 653 0 l 1,25,-1
 671 106 l 1,26,-1
 831 106 l 1,27,-1
 606 535 l 1,0,-1
EndSplineSet
EndChar

StartChar: Y
Encoding: 52 89 52
Width: 1238
VWidth: 0
GlyphClass: 2
Flags: HW
HStem: 0 106<237 409 592 750> 1173 107<110 217 441 597 985 1119 1240 1366>
DStem2: 441 1173 217 1173 0.427178 -0.904168<0 546.191> 388.396 0 571.396 0 0.190809 0.981627<142.902 584.749> 674 679 678 549 0.669228 0.743057<0 664.877>
LayerCount: 2
Fore
SplineSet
219 0 m 1,0,-1
 237 106 l 1,1,-1
 409 106 l 1,2,-1
 500 574 l 1,3,-1
 217 1173 l 1,4,-1
 91 1173 l 1,5,-1
 110 1280 l 1,6,-1
 616 1280 l 1,7,-1
 597 1173 l 1,8,-1
 441 1173 l 1,9,-1
 674 679 l 1,10,-1
 1119 1173 l 1,11,-1
 966 1173 l 1,12,-1
 985 1280 l 1,13,-1
 1385 1280 l 1,14,-1
 1366 1173 l 1,15,-1
 1240 1173 l 1,16,-1
 678 549 l 1,17,-1
 592 106 l 1,18,-1
 768 106 l 1,19,-1
 750 0 l 1,20,-1
 219 0 l 1,0,-1
EndSplineSet
EndChar

StartChar: Z
Encoding: 53 90 53
Width: 1336
VWidth: 0
GlyphClass: 2
Flags: HW
HStem: 0 123<261 1018> 1157 123<325 1054>
VStem: 190 111<1033 1144> 1052 110<191 301>
DStem2: -35 72 261 123 0.708407 0.705805<245.684 1537.25> 994.091 0 1104 0 0.190809 0.981627<125.302 306.519>
LayerCount: 2
Fore
SplineSet
-48 0 m 1,0,-1
 -35 72 l 1,1,-1
 1054 1157 l 1,2,-1
 325 1157 l 1,3,-1
 301 1032 l 1,4,-1
 190 1033 l 1,5,-1
 238 1280 l 1,6,-1
 1362 1280 l 1,7,-1
 1350 1208 l 1,8,-1
 261 123 l 1,9,-1
 1018 123 l 1,10,-1
 1052 301 l 1,11,-1
 1162 300 l 1,12,-1
 1104 0 l 1,13,-1
 -48 0 l 1,0,-1
EndSplineSet
EndChar

StartChar: backslash
Encoding: 54 92 54
Width: 621
VWidth: 0
GlyphClass: 2
Flags: HW
HStem: 1260 20G<148 294.517>
VStem: 148 144<1136 1280> 330 144<-166 -22>
DStem2: 292 1280 148 1280 0.124879 -0.992172<0 1439.43>
LayerCount: 2
Fore
SplineSet
292 1280 m 1,0,-1
 474 -166 l 1,1,-1
 330 -166 l 1,2,-1
 148 1280 l 1,3,-1
 292 1280 l 1,0,-1
EndSplineSet
EndChar

StartChar: underscore
Encoding: 55 95 55
Width: 922
VWidth: 0
GlyphClass: 2
Flags: HW
HStem: -421 81<0 922>
LayerCount: 2
Fore
SplineSet
922 -340 m 1,0,-1
 922 -421 l 1,1,-1
 0 -421 l 1,2,-1
 0 -340 l 1,3,-1
 922 -340 l 1,0,-1
EndSplineSet
EndChar

StartChar: a
Encoding: 56 97 56
Width: 1347
VWidth: 0
GlyphClass: 2
Flags: HW
HStem: 0 106<-123 -5 113 235 766 915 1122 1235> 374 108<350 837> 1260 20G<722.394 882.157>
DStem2: -5 106 113 106 0.533234 0.845968<62.9216 379.757 507.382 1195.43> 878 1280 717 1064 0.203488 -0.979077<178.719 772.961 883.381 1156.97>
LayerCount: 2
Fore
SplineSet
350 482 m 1,0,-1
 837 482 l 1,1,-1
 717 1064 l 1,2,-1
 350 482 l 1,0,-1
-141 0 m 1,3,-1
 -123 106 l 1,4,-1
 -5 106 l 1,5,-1
 735 1280 l 1,6,-1
 878 1280 l 5,7,-1
 1122 106 l 1,8,-1
 1253 106 l 1,9,-1
 1235 0 l 1,10,-1
 748 0 l 1,11,-1
 766 106 l 1,12,-1
 915 106 l 1,13,-1
 860 374 l 1,14,-1
 282 374 l 1,15,-1
 113 106 l 1,16,-1
 253 106 l 1,17,-1
 235 0 l 1,18,-1
 -141 0 l 1,3,-1
EndSplineSet
EndChar

StartChar: b
Encoding: 57 98 57
Width: 1366
VWidth: 0
GlyphClass: 2
Flags: HW
HStem: 0 106<-11 160 344 830.47> 638 107<468 909.725> 1173 107<230 368 551 981.454>
VStem: 992 215<271.738 576.258> 1033 228<863.28 1124.61>
DStem2: 139.396 0 323.396 0 0.190809 0.981627<143.093 684.972 794.013 1195.07>
LayerCount: 2
Fore
SplineSet
344 106 m 1,0,-1
 613 106 l 2,1,2
 775 106 775 106 863.5 170 c 128,-1,3
 952 234 952 234 982 373 c 0,4,5
 992 418 992 418 992 455 c 0,6,7
 992 532 992 532 950 574 c 0,8,9
 888 638 888 638 722 638 c 2,10,-1
 447 638 l 1,11,-1
 344 106 l 1,0,-1
468 745 m 1,12,-1
 696 745 l 2,13,14
 844 745 844 745 923 796.5 c 128,-1,15
 1002 848 1002 848 1026 959 c 0,16,17
 1033 992 1033 992 1033 1019 c 0,18,19
 1033 1086 1033 1086 992 1122 c 0,20,21
 934 1173 934 1173 784 1173 c 2,22,-1
 551 1173 l 1,23,-1
 468 745 l 1,12,-1
-29 0 m 1,24,-1
 -11 106 l 1,25,-1
 160 106 l 1,26,-1
 368 1173 l 1,27,-1
 211 1173 l 1,28,-1
 230 1280 l 1,29,-1
 903 1280 l 2,30,31
 1108 1280 1108 1280 1196 1200 c 0,32,33
 1261 1141 1261 1141 1261 1037 c 0,34,35
 1261 1001 1261 1001 1253 959 c 1,36,37
 1230 846 1230 846 1143.5 779.5 c 128,-1,38
 1057 713 1057 713 913 698 c 1,39,40
 1083 678 1083 678 1155 594 c 0,41,42
 1207 534 1207 534 1207 444 c 0,43,44
 1207 409 1207 409 1199 370 c 0,45,46
 1160 180 1160 180 1014 90 c 128,-1,47
 868 0 868 0 598 0 c 2,48,-1
 -29 0 l 1,24,-1
EndSplineSet
EndChar

StartChar: c
Encoding: 58 99 58
Width: 1409
VWidth: 0
GlyphClass: 2
Flags: HW
HStem: -25 107<454.974 870.364> 1196 107<668.731 1108.3>
VStem: 110 200<256.776 720.538> 1238 102<891 960.736>
LayerCount: 2
Fore
SplineSet
1262 347 m 1,0,1
 1166 164 1166 164 1007.5 69.5 c 128,-1,2
 849 -25 849 -25 634 -25 c 0,3,4
 503 -25 503 -25 399.5 18 c 128,-1,5
 296 61 296 61 226 144 c 0,6,7
 144 240 144 240 120 362 c 0,8,9
 110 411 110 411 110 464 c 0,10,11
 110 469 110 469 110 474 c 0,12,13
 110 551 110 551 128 639 c 0,14,15
 189 937 189 937 407 1120 c 128,-1,16
 625 1303 625 1303 921 1303 c 0,17,18
 1031 1303 1031 1303 1149.5 1272 c 128,-1,19
 1268 1241 1268 1241 1399 1178 c 1,20,-1
 1340 891 l 1,21,-1
 1238 891 l 1,22,23
 1237 1048 1237 1048 1152.5 1122 c 128,-1,24
 1068 1196 1068 1196 887 1196 c 0,25,26
 672 1196 672 1196 531.5 1054.5 c 128,-1,27
 391 913 391 913 334 639 c 0,28,29
 310 525 310 525 310 433 c 0,30,31
 310 306 310 306 357 224 c 0,32,33
 438 82 438 82 653 82 c 0,34,35
 803 82 803 82 914.5 148.5 c 128,-1,36
 1026 215 1026 215 1097 347 c 1,37,-1
 1262 347 l 1,0,1
EndSplineSet
EndChar

StartChar: d
Encoding: 59 100 59
Width: 1490
VWidth: 0
GlyphClass: 2
Flags: HW
HStem: 0 106<-11 160 344 775.088> 1173 107<230 368 551 973.25>
VStem: 1183 218<542.077 986.065>
DStem2: 139.396 0 323.396 0 0.190809 0.981627<143.093 1195.07>
LayerCount: 2
Fore
SplineSet
344 106 m 1,0,-1
 511 106 l 2,1,2
 773 106 773 106 942 244 c 0,3,4
 1112 384 1112 384 1166 642 c 0,5,6
 1183 722 1183 722 1183 789 c 0,7,8
 1183 793 1183 793 1183 796 c 0,9,10
 1182 944 1182 944 1106 1036 c 0,11,12
 992 1172 992 1172 723 1173 c 2,13,-1
 551 1173 l 1,14,-1
 344 106 l 1,0,-1
-29 0 m 1,15,-1
 -11 106 l 1,16,-1
 160 106 l 1,17,-1
 368 1173 l 1,18,-1
 211 1173 l 1,19,-1
 230 1280 l 1,20,-1
 772 1280 l 2,21,22
 1124 1280 1124 1280 1284 1111 c 0,23,24
 1400 989 1400 989 1401 797 c 0,25,26
 1401 724 1401 724 1384 641 c 1,27,28
 1322 339 1322 339 1091 169.5 c 128,-1,29
 860 0 860 0 511 0 c 2,30,-1
 -29 0 l 1,15,-1
EndSplineSet
EndChar

StartChar: e
Encoding: 60 101 60
Width: 1359
VWidth: 0
GlyphClass: 2
Flags: HW
HStem: 0 123<347 992> 0 106<-11 160> 630 123<470 897> 1157 123<548 1193> 1173 107<230 368>
VStem: 874 111<511 622> 961 111<847 958> 1026 111<186 297> 1158 111<976 1087>
DStem2: 139.396 0 323.091 0 0.190809 0.981627<160.353 676.928 802.248 1195.07> 774.672 0 885.866 0 0.190809 0.981627<540.762 641.766 767.086 975.952> 968.091 0 1079 0 0.190809 0.981627<125.302 302.593 1015.48 1178.66>
LayerCount: 2
Fore
SplineSet
-29 0 m 1,0,-1
 -11 106 l 1,1,-1
 160 106 l 1,2,-1
 368 1173 l 1,3,-1
 211 1173 l 1,4,-1
 230 1280 l 1,5,-1
 1328 1280 l 1,6,-1
 1269 976 l 1,7,-1
 1158 976 l 1,8,-1
 1193 1157 l 1,9,-1
 548 1157 l 1,10,-1
 470 753 l 1,11,-1
 921 753 l 1,12,-1
 961 958 l 1,13,-1
 1072 958 l 1,14,-1
 985 510 l 1,15,-1
 874 511 l 1,16,-1
 897 630 l 1,17,-1
 446 630 l 1,18,-1
 347 123 l 1,19,-1
 992 123 l 1,20,-1
 1026 297 l 1,21,-1
 1137 297 l 1,22,-1
 1079 0 l 1,23,-1
 -29 0 l 1,0,-1
EndSplineSet
EndChar

StartChar: f
Encoding: 61 102 61
Width: 1284
VWidth: 0
GlyphClass: 2
Flags: HW
HStem: 0 106<-11 160 344 547> 629 123<469 921> 1157 123<548 1203> 1173 107<230 368>
VStem: 899 111<513 624> 986 111<850 961>
DStem2: 139.396 0 323.396 0 0.190809 0.981627<143.093 675.756 801.075 1195.07> 799.283 0 910.477 0 0.190809 0.981627<542.8 640.668 765.988 978.971>
LayerCount: 2
Fore
SplineSet
-29 0 m 1,0,-1
 -11 106 l 1,1,-1
 160 106 l 1,2,-1
 368 1173 l 1,3,-1
 211 1173 l 1,4,-1
 230 1280 l 1,5,-1
 1338 1280 l 1,6,-1
 1293 1049 l 1,7,-1
 1182 1049 l 1,8,-1
 1203 1157 l 1,9,-1
 548 1157 l 1,10,-1
 469 752 l 1,11,-1
 945 752 l 1,12,-1
 986 961 l 1,13,-1
 1097 960 l 1,14,-1
 1010 512 l 1,15,-1
 899 513 l 1,16,-1
 921 629 l 1,17,-1
 445 629 l 1,18,-1
 344 106 l 1,19,-1
 566 106 l 1,20,-1
 547 0 l 1,21,-1
 -29 0 l 1,0,-1
EndSplineSet
EndChar

StartChar: g
Encoding: 62 103 62
Width: 1486
VWidth: 0
GlyphClass: 2
Flags: HW
HStem: -25 107<511.464 1002.8> 487 108<952 1182> 1196 107<721.533 1182.17>
VStem: 147 203<252.938 722.421> 1309 101<895 963.39>
DStem2: 1082.51 -25.0055 1265.81 -25.0055 0.190809 0.981627<171.941 521.582>
LayerCount: 2
Fore
SplineSet
1309 895 m 1,0,1
 1310 1049 1310 1049 1224.5 1122.5 c 128,-1,2
 1139 1196 1139 1196 958 1196 c 0,3,4
 723 1196 723 1196 577.5 1057.5 c 128,-1,5
 432 919 432 919 373 639 c 0,6,7
 350 530 350 530 350 443 c 0,8,9
 350 309 350 309 404 223 c 0,10,11
 493 82 493 82 725 82 c 0,12,13
 828 82 828 82 927.5 105 c 128,-1,14
 1027 128 1027 128 1121 173 c 1,15,-1
 1182 487 l 1,16,-1
 933 487 l 1,17,-1
 952 595 l 1,18,-1
 1386 595 l 1,19,-1
 1294 120 l 1,20,21
 1159 47 1159 47 1012 11 c 128,-1,22
 865 -25 865 -25 706 -25 c 0,23,24
 704 -25 704 -25 703 -25 c 0,25,26
 398 -25 398 -25 251 156 c 0,27,28
 147 285 147 285 147 475 c 0,29,30
 147 552 147 552 164 639 c 0,31,32
 227 942 227 942 450 1122.5 c 128,-1,33
 673 1303 673 1303 987 1303 c 0,34,35
 1104 1303 1104 1303 1222.5 1274 c 128,-1,36
 1341 1245 1341 1245 1471 1186 c 1,37,-1
 1410 895 l 1,38,-1
 1309 895 l 1,0,1
EndSplineSet
EndChar

StartChar: h
Encoding: 63 104 63
Width: 1610
VWidth: 0
GlyphClass: 2
Flags: HW
HStem: 0 106<-11 160 344 500 888 1059 1242 1398> 630 123<469 1161> 1173 107<230 368 551 722 1129 1267 1449 1620>
DStem2: 139.396 0 323.396 0 0.190809 0.981627<143.093 676.737 802.057 1195.07> 1038.4 0 1221.4 0 0.190809 0.981627<142.902 641.819 767.139 1195.07>
LayerCount: 2
Fore
SplineSet
-29 0 m 1,0,-1
 -11 106 l 1,1,-1
 160 106 l 1,2,-1
 368 1173 l 1,3,-1
 211 1173 l 1,4,-1
 230 1280 l 1,5,-1
 741 1280 l 1,6,-1
 722 1173 l 1,7,-1
 551 1173 l 1,8,-1
 469 753 l 1,9,-1
 1185 753 l 1,10,-1
 1267 1173 l 1,11,-1
 1109 1173 l 1,12,-1
 1129 1280 l 1,13,-1
 1639 1280 l 1,14,-1
 1620 1173 l 1,15,-1
 1449 1173 l 1,16,-1
 1242 106 l 1,17,-1
 1417 106 l 1,18,-1
 1398 0 l 1,19,-1
 870 0 l 1,20,-1
 888 106 l 1,21,-1
 1059 106 l 1,22,-1
 1161 630 l 1,23,-1
 445 630 l 1,24,-1
 344 106 l 1,25,-1
 518 106 l 1,26,-1
 500 0 l 1,27,-1
 -29 0 l 1,0,-1
EndSplineSet
EndChar

StartChar: i
Encoding: 64 105 64
Width: 712
VWidth: 0
GlyphClass: 2
Flags: HW
HStem: 0 106<-11 160 344 500> 1173 107<230 368 551 722>
DStem2: 139.396 0 323.396 0 0.190809 0.981627<143.093 1195.07>
LayerCount: 2
Fore
SplineSet
344 106 m 1,0,-1
 519 106 l 1,1,-1
 500 0 l 1,2,-1
 -29 0 l 1,3,-1
 -11 106 l 1,4,-1
 160 106 l 1,5,-1
 368 1173 l 1,6,-1
 211 1173 l 1,7,-1
 230 1280 l 1,8,-1
 741 1280 l 1,9,-1
 722 1173 l 1,10,-1
 551 1173 l 1,11,-1
 344 106 l 1,0,-1
EndSplineSet
EndChar

StartChar: j
Encoding: 65 106 65
Width: 728
VWidth: 0
GlyphClass: 2
Flags: HW
HStem: -365 107<-149.38 105.398> 1173 107<269 440 622 793>
VStem: -270 104<-140.312 -93>
DStem2: 141.043 -365 323.498 -365 0.190809 0.981627<197.965 1566.79>
LayerCount: 2
Fore
SplineSet
-310 -297 m 1,0,-1
 -270 -93 l 1,1,-1
 -166 -93 l 1,2,3
 -170 -119 -170 -119 -170 -141 c 0,4,5
 -170 -189 -170 -189 -149 -217 c 0,6,7
 -118 -258 -118 -258 -38 -258 c 0,8,9
 70 -258 70 -258 126 -195 c 128,-1,10
 182 -132 182 -132 222 51 c 2,11,-1
 440 1173 l 1,12,-1
 250 1173 l 1,13,-1
 269 1280 l 1,14,-1
 812 1280 l 1,15,-1
 793 1173 l 1,16,-1
 622 1173 l 1,17,-1
 403 44 l 2,18,19
 359 -172 359 -172 250 -268.5 c 128,-1,20
 141 -365 141 -365 -59 -365 c 0,21,22
 -123 -365 -123 -365 -186.5 -348 c 128,-1,23
 -250 -331 -250 -331 -310 -297 c 1,0,-1
EndSplineSet
EndChar

StartChar: k
Encoding: 66 107 66
Width: 1415
VWidth: 0
GlyphClass: 2
Flags: HW
HStem: 0 106<-11 160 344 502 1172 1307> 1173 107<230 368 551 722 1040 1162 1334 1485>
DStem2: 139.396 0 323.396 0 0.190809 0.981627<143.093 659.477 746.159 1195.07> 638 703 442 613 0.66715 -0.744923<0 759.185> 459 698 638 703 0.828589 0.559857<151.117 848.43>
LayerCount: 2
Fore
SplineSet
-29 0 m 1,0,-1
 -11 106 l 1,1,-1
 160 106 l 1,2,-1
 368 1173 l 1,3,-1
 211 1173 l 1,4,-1
 230 1280 l 1,5,-1
 741 1280 l 1,6,-1
 722 1173 l 1,7,-1
 551 1173 l 1,8,-1
 459 698 l 1,9,-1
 1162 1173 l 1,10,-1
 1021 1173 l 1,11,-1
 1040 1280 l 1,12,-1
 1504 1280 l 1,13,-1
 1485 1173 l 1,14,-1
 1334 1173 l 1,15,-1
 638 703 l 1,16,-1
 1172 106 l 1,17,-1
 1325 106 l 1,18,-1
 1307 0 l 1,19,-1
 991 0 l 1,20,-1
 442 613 l 1,21,-1
 344 106 l 1,22,-1
 520 106 l 1,23,-1
 502 0 l 1,24,-1
 -29 0 l 1,0,-1
EndSplineSet
EndChar

StartChar: l
Encoding: 67 108 67
Width: 1236
VWidth: 0
GlyphClass: 2
Flags: HW
HStem: 0 123<347 974> 0 106<-11 160> 1173 107<230 368 552 723>
VStem: 1016 111<226 337>
DStem2: 139.396 0 323.091 0 0.190809 0.981627<160.353 1195.07> 950.091 0 1061 0 0.190809 0.981627<125.302 343.384>
LayerCount: 2
Fore
SplineSet
-29 0 m 1,0,-1
 -11 106 l 1,1,-1
 160 106 l 1,2,-1
 368 1173 l 1,3,-1
 211 1173 l 1,4,-1
 230 1280 l 1,5,-1
 741 1280 l 1,6,-1
 723 1173 l 1,7,-1
 552 1173 l 1,8,-1
 347 123 l 1,9,-1
 974 123 l 1,10,-1
 1016 337 l 1,11,-1
 1127 337 l 1,12,-1
 1061 0 l 1,13,-1
 -29 0 l 1,0,-1
EndSplineSet
EndChar

StartChar: m
Encoding: 68 109 68
Width: 1909
VWidth: 0
GlyphClass: 2
Flags: HW
HStem: 0 106<-11 160 271 429 1186 1357 1541 1700> 1173 107<221 368 1748 1927>
DStem2: 139.396 0 250.396 0 0.190809 0.981627<129.164 1160.16> 621 1280 468 1118 0.315297 -0.948993<105.496 948.368> 920 380 900 200 0.594265 0.804269<0 891.045> 1336.4 0 1520.4 0 0.190809 0.981627<143.093 1051.32>
LayerCount: 2
Fore
SplineSet
-29 0 m 1,0,-1
 -11 106 l 1,1,-1
 160 106 l 1,2,-1
 368 1173 l 1,3,-1
 202 1173 l 1,4,-1
 221 1280 l 1,5,-1
 621 1280 l 1,6,-1
 920 380 l 1,7,-1
 1585 1280 l 1,8,-1
 1946 1280 l 1,9,-1
 1927 1173 l 1,10,-1
 1748 1173 l 1,11,-1
 1541 106 l 1,12,-1
 1718 106 l 1,13,-1
 1700 0 l 1,14,-1
 1168 0 l 1,15,-1
 1186 106 l 1,16,-1
 1357 106 l 1,17,-1
 1537 1032 l 1,18,-1
 900 200 l 1,19,-1
 773 200 l 1,20,-1
 468 1118 l 1,21,-1
 271 106 l 1,22,-1
 448 106 l 1,23,-1
 429 0 l 1,24,-1
 -29 0 l 1,0,-1
EndSplineSet
EndChar

StartChar: n
Encoding: 69 110 69
Width: 1622
VWidth: 0
GlyphClass: 2
Flags: HW
HStem: -25 21G<1133.47 1245.89> 0 106<-20 161 272 439> 1173 107<222 369 1218 1364 1475 1656>
DStem2: 135.536 -25 246.536 -25 0.190809 0.981627<154.632 1136.79> 574 1280 460 1070 0.530903 -0.847433<117.438 1165.89> 1131.38 -25 1242 -25 0.190809 0.981627<322.933 1220.38>
LayerCount: 2
Fore
SplineSet
-38 0 m 1,0,-1
 -20 106 l 1,1,-1
 161 106 l 1,2,-1
 369 1173 l 1,3,-1
 203 1173 l 1,4,-1
 222 1280 l 1,5,-1
 574 1280 l 1,6,-1
 1193 292 l 1,7,-1
 1364 1173 l 1,8,-1
 1199 1173 l 1,9,-1
 1218 1280 l 1,10,-1
 1675 1280 l 1,11,-1
 1656 1173 l 1,12,-1
 1475 1173 l 1,13,-1
 1242 -25 l 1,14,-1
 1146 -25 l 1,15,-1
 460 1070 l 1,16,-1
 272 106 l 1,17,-1
 458 106 l 1,18,-1
 439 0 l 1,19,-1
 -38 0 l 1,0,-1
EndSplineSet
EndChar

StartChar: o
Encoding: 70 111 70
Width: 1510
VWidth: 0
GlyphClass: 2
Flags: HW
HStem: -25 107<458.904 885.622> 1196 107<673.762 1100.55>
VStem: 110 200<256.776 721.942> 1250 201<555.665 1027.22>
LayerCount: 2
Fore
SplineSet
663 82 m 0,0,1
 883 82 883 82 1025.5 222.5 c 128,-1,2
 1168 363 1168 363 1226 639 c 0,3,4
 1250 753 1250 753 1250 843 c 0,5,6
 1250 974 1250 974 1201 1056 c 0,7,8
 1118 1196 1118 1196 897 1196 c 128,-1,9
 676 1196 676 1196 533.5 1055.5 c 128,-1,10
 391 915 391 915 334 639 c 0,11,12
 310 526 310 526 310 435 c 0,13,14
 310 306 310 306 359 223 c 0,15,16
 442 82 442 82 663 82 c 0,0,1
644 -25 m 0,17,18
 507 -25 507 -25 401.5 18 c 128,-1,19
 296 61 296 61 226 144 c 0,20,21
 144 240 144 240 120 362 c 0,22,23
 110 411 110 411 110 464 c 0,24,25
 110 469 110 469 110 474 c 0,26,27
 110 550 110 550 128 638 c 0,28,29
 160 794 160 794 233.5 916 c 128,-1,30
 307 1038 307 1038 427 1134 c 0,31,32
 532 1218 532 1218 655 1260.5 c 128,-1,33
 778 1303 778 1303 916 1303 c 0,34,35
 1208 1302 1208 1302 1351 1120 c 0,36,37
 1451 992 1451 992 1451 807 c 0,38,39
 1451 728 1451 728 1433 639 c 0,40,41
 1402 486 1402 486 1327 362.5 c 128,-1,42
 1252 239 1252 239 1132 144 c 0,43,44
 1027 60 1027 60 904.5 17.5 c 128,-1,45
 782 -25 782 -25 644 -25 c 0,17,18
EndSplineSet
EndChar

StartChar: p
Encoding: 71 112 71
Width: 1231
VWidth: 0
GlyphClass: 2
Flags: HW
HStem: 0 106<-11 160 344 535> 552 108<451 870.958> 1173 107<230 368 551 960.053>
VStem: 1026 205<817.163 1112.04>
DStem2: 139.396 0 323.396 0 0.190809 0.981627<143.093 597.308 707.331 1195.07>
LayerCount: 2
Fore
SplineSet
451 660 m 1,0,-1
 689 660 l 2,1,2
 823 660 823 660 907 726 c 128,-1,3
 991 792 991 792 1017 916 c 0,4,5
 1026 956 1026 956 1026 990 c 0,6,7
 1026 1062 1026 1062 987 1107 c 0,8,9
 930 1173 930 1173 793 1173 c 2,10,-1
 551 1173 l 1,11,-1
 451 660 l 1,0,-1
-29 0 m 1,12,-1
 -11 106 l 1,13,-1
 160 106 l 1,14,-1
 368 1173 l 1,15,-1
 211 1173 l 1,16,-1
 230 1280 l 1,17,-1
 861 1280 l 2,18,19
 1061 1280 1061 1280 1159 1182 c 0,20,21
 1231 1109 1231 1109 1231 999 c 0,22,23
 1231 960 1231 960 1222 916 c 0,24,25
 1189 750 1189 750 1051.5 651 c 128,-1,26
 914 552 914 552 712 552 c 2,27,-1
 430 552 l 1,28,-1
 344 106 l 1,29,-1
 554 106 l 1,30,-1
 535 0 l 1,31,-1
 -29 0 l 1,12,-1
EndSplineSet
EndChar

StartChar: q
Encoding: 72 113 72
Width: 1512
VWidth: 0
GlyphClass: 2
Flags: HW
HStem: -281 185<870.011 1251> -25 107<460.723 688.008> 1196 107<676.477 1103.37>
VStem: 112 201<247.771 725.032> 1252 202<555.734 1027.1>
LayerCount: 2
Fore
SplineSet
669 -25 m 1,0,1
 360 -25 360 -25 213 156 c 0,2,3
 112 281 112 281 112 466 c 0,4,5
 112 549 112 549 130 639 c 0,6,7
 162 794 162 794 236 916 c 128,-1,8
 310 1038 310 1038 430 1134 c 0,9,10
 535 1218 535 1218 657.5 1260.5 c 128,-1,11
 780 1303 780 1303 919 1303 c 0,12,13
 1212 1303 1212 1303 1354 1121 c 0,14,15
 1454 993 1454 993 1454 808 c 0,16,17
 1454 729 1454 729 1436 640 c 0,18,19
 1384 387 1384 387 1213.5 214.5 c 128,-1,20
 1043 42 1043 42 795 -8 c 1,21,22
 832 -53 832 -53 896 -74.5 c 128,-1,23
 960 -96 960 -96 1058 -96 c 2,24,-1
 1283 -96 l 1,25,-1
 1251 -281 l 1,26,-1
 1145 -281 l 2,27,28
 906 -281 906 -281 808 -199 c 1,29,30
 710 -133 710 -133 669 -25 c 1,0,1
666 82 m 128,-1,32
 887 82 887 82 1029 222.5 c 128,-1,33
 1171 363 1171 363 1228 639 c 0,34,35
 1251 752 1251 752 1252 843 c 0,36,37
 1252 972 1252 972 1203 1055 c 0,38,39
 1120 1196 1120 1196 900 1196 c 0,40,41
 679 1196 679 1196 536.5 1055.5 c 128,-1,42
 394 915 394 915 336 639 c 0,43,44
 313 526 313 526 313 435 c 0,45,46
 313 306 313 306 361 222 c 0,47,31
 445 82 445 82 666 82 c 128,-1,32
EndSplineSet
EndChar

StartChar: r
Encoding: 73 114 73
Width: 1409
VWidth: 0
GlyphClass: 2
Flags: HW
HStem: 0 106<-11 160 344 521 1178 1323> 586 108<458 786.551> 1173 107<230 368 551 997.129>
VStem: 1048 241<833.926 1123.71>
DStem2: 139.396 0 323.396 0 0.190809 0.981627<143.093 632.019 742.042 1195.07> 1178 106 872 407 0.319021 -0.947748<-540.284 0>
LayerCount: 2
Fore
SplineSet
899 632 m 1,0,1
 959 616 959 616 996.5 577 c 128,-1,2
 1034 538 1034 538 1056 468 c 2,3,-1
 1178 106 l 1,4,-1
 1341 106 l 1,5,-1
 1323 0 l 1,6,-1
 1009 0 l 1,7,-1
 872 407 l 2,8,9
 834 520 834 520 788 553 c 128,-1,10
 742 586 742 586 649 586 c 2,11,-1
 437 586 l 1,12,-1
 344 106 l 1,13,-1
 540 106 l 1,14,-1
 521 0 l 1,15,-1
 -29 0 l 1,16,-1
 -11 106 l 1,17,-1
 160 106 l 1,18,-1
 368 1173 l 1,19,-1
 211 1173 l 1,20,-1
 230 1280 l 1,21,-1
 931 1280 l 2,22,23
 1133 1280 1133 1280 1223 1190 c 0,24,25
 1289 1124 1289 1124 1289 1017 c 0,26,27
 1289 979 1289 979 1281 936 c 0,28,29
 1253 803 1253 803 1157 727 c 128,-1,30
 1061 651 1061 651 899 632 c 1,0,1
458 694 m 1,31,-1
 723 694 l 2,32,33
 859 694 859 694 936 752 c 0,34,35
 1014 810 1014 810 1040 934 c 0,36,37
 1048 971 1048 971 1048 1002 c 0,38,39
 1048 1005 1048 1005 1048 1009 c 0,40,41
 1048 1077 1048 1077 1013 1115 c 0,42,43
 960 1173 960 1173 821 1173 c 2,44,-1
 551 1173 l 1,45,-1
 458 694 l 1,31,-1
EndSplineSet
EndChar

StartChar: s
Encoding: 74 115 74
Width: 1262
VWidth: 0
GlyphClass: 2
Flags: HW
HStem: -25 107<290.015 735.587> 1196 107<525.111 947.526>
VStem: 112 104<291.75 360> 211 186<859.969 1057.95> 885 192<247.611 446.405> 1023 102<946 983.437>
DStem2: 645 762 496 577 0.959089 -0.283105<-232.813 293.391>
LayerCount: 2
Fore
SplineSet
53 76 m 1,0,-1
 112 361 l 1,1,-1
 216 360 l 1,2,3
 209 322 209 322 209 287 c 0,4,5
 209 199 209 199 260 150 c 0,6,7
 330 82 330 82 502 82 c 0,8,9
 662 82 662 82 759 138.5 c 128,-1,10
 856 195 856 195 879 304 c 0,11,12
 885 332 885 332 885 355 c 0,13,14
 885 406 885 406 857 438 c 0,15,16
 816 484 816 484 662 528 c 2,17,-1
 496 577 l 2,18,19
 314 634 314 634 252 719 c 0,20,21
 211 776 211 776 211 860 c 0,22,23
 211 905 211 905 220 952 c 0,24,25
 253 1119 253 1119 393.5 1211 c 128,-1,26
 534 1303 534 1303 753 1303 c 0,27,28
 847 1303 847 1303 954.5 1280.5 c 128,-1,29
 1062 1258 1062 1258 1180 1215 c 1,30,-1
 1125 946 l 1,31,-1
 1023 946 l 1,32,33
 1025 966 1025 966 1025 984 c 0,34,35
 1025 1087 1025 1087 968 1137 c 0,36,37
 901 1196 901 1196 738 1196 c 0,38,39
 596 1196 596 1196 510.5 1144 c 128,-1,40
 425 1092 425 1092 403 994 c 0,41,42
 397 968 397 968 397 946 c 0,43,44
 397 893 397 893 429 859 c 0,45,46
 474 810 474 810 645 762 c 2,47,-1
 802 716 l 2,48,49
 974 663 974 663 1035 580 c 0,50,51
 1077 523 1077 523 1077 440 c 0,52,53
 1077 402 1077 402 1068 358 c 0,54,55
 1030 168 1030 168 886 71.5 c 128,-1,56
 742 -25 742 -25 494 -25 c 0,57,58
 383 -25 383 -25 273 0 c 128,-1,59
 163 25 163 25 53 76 c 1,0,-1
EndSplineSet
EndChar

StartChar: t
Encoding: 75 116 75
Width: 1233
VWidth: 0
GlyphClass: 2
Flags: HW
HStem: 0 106<247 419 601 757> 1161 119<232 624 806 1212>
VStem: 87 111<990 1101> 1188 111<1042 1153>
DStem2: -105.437 0 5.75787 0 0.190809 0.981627<1028.73 1204.06> 398.396 0 580.396 0 0.190809 0.981627<142.711 1182.72>
LayerCount: 2
Fore
SplineSet
229 0 m 1,0,-1
 247 106 l 1,1,-1
 419 106 l 1,2,-1
 624 1161 l 1,3,-1
 232 1161 l 1,4,-1
 198 989 l 1,5,-1
 87 990 l 1,6,-1
 144 1280 l 1,7,-1
 1346 1280 l 1,8,-1
 1299 1041 l 1,9,-1
 1188 1042 l 1,10,-1
 1212 1161 l 1,11,-1
 806 1161 l 1,12,-1
 601 106 l 1,13,-1
 776 106 l 1,14,-1
 757 0 l 1,15,-1
 229 0 l 1,0,-1
EndSplineSet
EndChar

StartChar: u
Encoding: 76 117 76
Width: 1557
VWidth: 0
GlyphClass: 2
Flags: HW
HStem: -25 131<515.462 970.288> 1173 107<246 386 568 740 1196 1333 1444 1615>
VStem: 236 185<190.947 629.703>
DStem2: 153.035 -25 334.925 -25 0.190809 0.981627<418.781 1220.44> 1100.92 -25 1211.03 -25 0.190809 0.981627<301.389 1220.27>
LayerCount: 2
Fore
SplineSet
386 1173 m 1,0,-1
 227 1173 l 1,1,-1
 246 1280 l 1,2,-1
 759 1280 l 1,3,-1
 740 1173 l 1,4,-1
 568 1173 l 1,5,-1
 443 531 l 1,6,7
 421 428 421 428 421 347 c 0,8,9
 421 253 421 253 458 200 c 0,10,11
 524 106 524 106 735 106 c 128,-1,12
 946 106 946 106 1051.5 200 c 128,-1,13
 1157 294 1157 294 1209 531 c 2,14,-1
 1333 1173 l 1,15,-1
 1177 1173 l 1,16,-1
 1196 1280 l 1,17,-1
 1634 1280 l 1,18,-1
 1615 1173 l 1,19,-1
 1444 1173 l 1,20,-1
 1316 515 l 2,21,22
 1256 220 1256 220 1111 97.5 c 128,-1,23
 966 -25 966 -25 678.5 -25 c 128,-1,24
 391 -25 391 -25 295 98 c 0,25,26
 236 174 236 174 236 316 c 0,27,28
 236 403 236 403 258 515 c 2,29,-1
 386 1173 l 1,0,-1
EndSplineSet
EndChar

StartChar: v
Encoding: 77 118 77
Width: 1354
VWidth: 0
GlyphClass: 2
Flags: HW
HStem: 0 21G<464.891 634.617> 1173 107<112 228 435 585 1109 1245 1362 1493>
DStem2: 435 1173 228 1173 0.201252 -0.979539<0 988.243> 634 205 622 0 0.533559 0.845763<0 1144.7>
LayerCount: 2
Fore
SplineSet
435 1173 m 1,0,-1
 634 205 l 1,1,-1
 1245 1173 l 1,2,-1
 1090 1173 l 1,3,-1
 1109 1280 l 1,4,-1
 1512 1280 l 1,5,-1
 1493 1173 l 1,6,-1
 1362 1173 l 1,7,-1
 622 0 l 1,8,-1
 469 0 l 1,9,-1
 228 1173 l 1,10,-1
 94 1173 l 1,11,-1
 112 1280 l 1,12,-1
 603 1280 l 1,13,-1
 585 1173 l 1,14,-1
 435 1173 l 1,0,-1
EndSplineSet
EndChar

StartChar: w
Encoding: 78 119 78
Width: 1940
VWidth: 0
GlyphClass: 2
Flags: HW
HStem: 0 21G<365.073 524.465 1152.06 1311.47> 1173 107<140 254 444 611 1670 1812 1915 2047>
DStem2: 444 1173 254 1173 0.0958903 -0.995392<0 938.326> 534 239 514 0 0.463816 0.885931<0 943.728> 1215 1280 1054 1032 0.0964148 -0.995341<231.322 1057.93> 1317 227 1301 0 0.463753 0.885965<0 1067.68>
LayerCount: 2
Fore
SplineSet
1301 0 m 1,0,-1
 1154 0 l 1,1,-1
 1054 1032 l 1,2,-1
 514 0 l 1,3,-1
 367 0 l 1,4,-1
 254 1173 l 1,5,-1
 121 1173 l 1,6,-1
 140 1280 l 1,7,-1
 630 1280 l 1,8,-1
 611 1173 l 1,9,-1
 444 1173 l 1,10,-1
 534 239 l 1,11,-1
 1079 1280 l 1,12,-1
 1215 1280 l 1,13,-1
 1317 227 l 1,14,-1
 1812 1173 l 1,15,-1
 1651 1173 l 1,16,-1
 1670 1280 l 1,17,-1
 2066 1280 l 1,18,-1
 2047 1173 l 1,19,-1
 1915 1173 l 1,20,-1
 1301 0 l 1,0,-1
EndSplineSet
EndChar

StartChar: x
Encoding: 79 120 79
Width: 1347
VWidth: 0
GlyphClass: 2
Flags: HW
HStem: 0 106<-102 53 180 319 671 831 1070 1195> 1173 107<147 272 511 669 941 1110 1238 1389>
DStem2: 53 106 180 106 0.704106 0.710095<89.4214 694.001 944.704 1501.91> 511 1173 272 1173 0.464069 -0.885799<0 446.839 609.226 1093.65>
LayerCount: 2
Fore
SplineSet
606 535 m 1,0,-1
 180 106 l 1,1,-1
 338 106 l 1,2,-1
 319 0 l 1,3,-1
 -120 0 l 1,4,-1
 -102 106 l 1,5,-1
 53 106 l 1,6,-1
 562 619 l 1,7,-1
 272 1173 l 1,8,-1
 128 1173 l 1,9,-1
 147 1280 l 1,10,-1
 688 1280 l 1,11,-1
 669 1173 l 1,12,-1
 511 1173 l 1,13,-1
 718 777 l 1,14,-1
 1110 1173 l 1,15,-1
 922 1173 l 1,16,-1
 941 1280 l 1,17,-1
 1408 1280 l 1,18,-1
 1389 1173 l 1,19,-1
 1238 1173 l 1,20,-1
 762 693 l 1,21,-1
 1070 106 l 1,22,-1
 1214 106 l 1,23,-1
 1195 0 l 1,24,-1
 653 0 l 1,25,-1
 671 106 l 1,26,-1
 831 106 l 1,27,-1
 606 535 l 1,0,-1
EndSplineSet
EndChar

StartChar: y
Encoding: 80 121 80
Width: 1238
VWidth: 0
GlyphClass: 2
Flags: HW
HStem: 0 106<237 409 592 750> 1173 107<110 217 441 597 985 1119 1240 1366>
DStem2: 441 1173 217 1173 0.427178 -0.904168<0 546.191> 388.396 0 571.396 0 0.190809 0.981627<142.902 584.749> 674 679 678 549 0.669228 0.743057<0 664.877>
LayerCount: 2
Fore
SplineSet
219 0 m 1,0,-1
 237 106 l 1,1,-1
 409 106 l 1,2,-1
 500 574 l 1,3,-1
 217 1173 l 1,4,-1
 91 1173 l 1,5,-1
 110 1280 l 1,6,-1
 616 1280 l 1,7,-1
 597 1173 l 1,8,-1
 441 1173 l 1,9,-1
 674 679 l 1,10,-1
 1119 1173 l 1,11,-1
 966 1173 l 1,12,-1
 985 1280 l 1,13,-1
 1385 1280 l 1,14,-1
 1366 1173 l 1,15,-1
 1240 1173 l 1,16,-1
 678 549 l 1,17,-1
 592 106 l 1,18,-1
 768 106 l 1,19,-1
 750 0 l 1,20,-1
 219 0 l 1,0,-1
EndSplineSet
EndChar

StartChar: z
Encoding: 81 122 81
Width: 1336
VWidth: 0
GlyphClass: 2
Flags: HW
HStem: 0 123<261 1018> 1157 123<325 1054>
VStem: 190 111<1033 1144> 1052 110<191 301>
DStem2: -35 72 261 123 0.708407 0.705805<245.684 1537.25> 994.091 0 1104 0 0.190809 0.981627<125.302 306.519>
LayerCount: 2
Fore
SplineSet
-48 0 m 1,0,-1
 -35 72 l 1,1,-1
 1054 1157 l 1,2,-1
 325 1157 l 1,3,-1
 301 1032 l 1,4,-1
 190 1033 l 1,5,-1
 238 1280 l 1,6,-1
 1362 1280 l 1,7,-1
 1350 1208 l 1,8,-1
 261 123 l 1,9,-1
 1018 123 l 1,10,-1
 1052 301 l 1,11,-1
 1162 300 l 1,12,-1
 1104 0 l 1,13,-1
 -48 0 l 1,0,-1
EndSplineSet
EndChar

StartChar: bar
Encoding: 82 124 82
Width: 621
VWidth: 0
GlyphClass: 2
Flags: HW
VStem: 238 146<-414 1342>
LayerCount: 2
Fore
SplineSet
384 1342 m 1,0,-1
 384 -414 l 1,1,-1
 238 -414 l 1,2,-1
 238 1342 l 1,3,-1
 384 1342 l 1,0,-1
EndSplineSet
EndChar

StartChar: copyright
Encoding: 83 169 83
Width: 1847
VWidth: 0
GlyphClass: 2
Flags: HW
HStem: 0 102<693.562 1157.68> 259 78<800.493 1063.46> 729 213<1131.29 1215> 940 78<800.628 1057.2> 1170 103<690.321 1157.68>
VStem: 255 92<428.995 843.174> 555 155<439.117 835.003> 1133 107<396.335 484> 1139 76<729 851.461> 1501 92<427.29 843.916>
LayerCount: 2
Fore
SplineSet
1240 484 m 1,0,1
 1216 375 1216 375 1134 317 c 128,-1,2
 1052 259 1052 259 924 259 c 0,3,4
 755 259 755 259 655 362 c 128,-1,5
 555 465 555 465 555 637 c 0,6,7
 555 810 555 810 656.5 914 c 128,-1,8
 758 1018 758 1018 924 1018 c 0,9,10
 996 1018 996 1018 1066 999.5 c 128,-1,11
 1136 981 1136 981 1215 942 c 1,12,-1
 1215 729 l 1,13,-1
 1139 729 l 1,14,15
 1124 838 1124 838 1072.5 889 c 128,-1,16
 1021 940 1021 940 926 940 c 0,17,18
 819 940 819 940 764.5 864 c 128,-1,19
 710 788 710 788 710 637 c 0,20,21
 710 487 710 487 764 412 c 128,-1,22
 818 337 818 337 924 337 c 0,23,24
 1011 337 1011 337 1062.5 373 c 128,-1,25
 1114 409 1114 409 1133 484 c 1,26,-1
 1240 484 l 1,0,1
923.5 1273 m 128,-1,28
 1061 1273 1061 1273 1179.5 1226 c 128,-1,29
 1298 1179 1298 1179 1396.5 1085.5 c 128,-1,30
 1495 992 1495 992 1544 879.5 c 128,-1,31
 1593 767 1593 767 1593 635 c 0,32,33
 1593 505 1593 505 1544 393 c 128,-1,34
 1495 281 1495 281 1396.5 187.5 c 128,-1,35
 1298 94 1298 94 1179.5 47 c 128,-1,36
 1061 0 1061 0 923.5 0 c 128,-1,37
 786 0 786 0 667.5 47 c 128,-1,38
 549 94 549 94 450.5 187.5 c 128,-1,39
 352 281 352 281 303.5 393 c 128,-1,40
 255 505 255 505 255 635 c 0,41,42
 255 767 255 767 303.5 879.5 c 128,-1,43
 352 992 352 992 450.5 1085.5 c 128,-1,44
 549 1179 549 1179 667.5 1226 c 128,-1,27
 786 1273 786 1273 923.5 1273 c 128,-1,28
924 1170 m 0,45,46
 806 1170 806 1170 703.5 1131 c 128,-1,47
 601 1092 601 1092 516 1013 c 0,48,49
 432 935 432 935 389.5 839.5 c 128,-1,50
 347 744 347 744 347 635 c 0,51,52
 347 527 347 527 389.5 432.5 c 128,-1,53
 432 338 432 338 516 260 c 0,54,55
 601 182 601 182 703 142 c 128,-1,56
 805 102 805 102 924 102 c 128,-1,57
 1043 102 1043 102 1145.5 141.5 c 128,-1,58
 1248 181 1248 181 1333 260 c 0,59,60
 1417 338 1417 338 1459 432 c 128,-1,61
 1501 526 1501 526 1501 635 c 0,62,63
 1501 746 1501 746 1458.5 841 c 128,-1,64
 1416 936 1416 936 1333 1013 c 0,65,66
 1248 1091 1248 1091 1145.5 1130.5 c 128,-1,67
 1043 1170 1043 1170 924 1170 c 0,45,46
EndSplineSet
EndChar

StartChar: sfthyphen
Encoding: 84 173 84
Width: 623
VWidth: 0
GlyphClass: 2
Flags: HW
HStem: 392 157<95 528>
VStem: 68 488
LayerCount: 2
Fore
SplineSet
95 549 m 1,0,-1
 556 549 l 1,1,-1
 528 392 l 1,2,-1
 68 392 l 1,3,-1
 95 549 l 1,0,-1
EndSplineSet
EndChar

StartChar: paragraph
Encoding: 85 182 85
Width: 1172
VWidth: 0
GlyphClass: 2
Flags: HW
HStem: 1173 107<799 1012 1109 1215>
VStem: 438 96<-189 -93> 749 96<-182 -86>
DStem2: 437.417 -192 534 -192 0.190809 0.981627<18.4289 746.739> 747.056 -192 843.639 -192 0.190809 0.981627<25.5599 1390.47>
LayerCount: 2
Fore
SplineSet
750 1280 m 2,0,-1
 1234 1280 l 1,1,-1
 1215 1173 l 1,2,-1
 1109 1173 l 1,3,-1
 845 -185 l 1,4,-1
 749 -182 l 1,5,-1
 1012 1173 l 1,6,-1
 799 1173 l 1,7,-1
 534 -192 l 1,8,-1
 438 -189 l 1,9,-1
 580 541 l 1,10,11
 388 556 388 556 302 653 c 0,12,13
 239 724 239 724 239 829 c 0,14,15
 239 868 239 868 248 911 c 0,16,17
 281 1077 281 1077 419 1178.5 c 128,-1,18
 557 1280 557 1280 750 1280 c 2,0,-1
EndSplineSet
EndChar

StartChar: multiply
Encoding: 86 215 86
Width: 1585
VWidth: 0
GlyphClass: 2
Flags: HW
HStem: 448 205<695.5 900.5>
VStem: 685 225<437.5 662.5>
DStem2: 367 1045 255 942 0.739045 -0.673656<0 568.476 734.761 1301.82> 255 158 367 56 0.739356 0.673315<14.1297 581.862 748.218 1317.36>
LayerCount: 2
Fore
SplineSet
1332 934 m 1,0,-1
 910 550 l 1,1,-1
 1332 166 l 1,2,-1
 1227 56 l 1,3,-1
 797 448 l 1,4,-1
 367 56 l 1,5,-1
 255 158 l 1,6,-1
 685 550 l 1,7,-1
 255 942 l 1,8,-1
 367 1045 l 1,9,-1
 798 653 l 1,10,-1
 1229 1045 l 1,11,-1
 1332 934 l 1,0,-1
EndSplineSet
EndChar

StartChar: uni2010
Encoding: 88 8208 87
Width: 623
VWidth: 0
GlyphClass: 2
Flags: HW
HStem: 392 157<95 528>
VStem: 68 488
LayerCount: 2
Fore
SplineSet
95 549 m 1,0,-1
 556 549 l 1,1,-1
 528 392 l 1,2,-1
 68 392 l 1,3,-1
 95 549 l 1,0,-1
EndSplineSet
EndChar

StartChar: uni2011
Encoding: 89 8209 88
Width: 623
VWidth: 0
GlyphClass: 2
Flags: HW
HStem: 392 157<95 528>
VStem: 68 488
LayerCount: 2
Fore
SplineSet
95 549 m 1,0,-1
 556 549 l 1,1,-1
 528 392 l 1,2,-1
 68 392 l 1,3,-1
 95 549 l 1,0,-1
EndSplineSet
EndChar

StartChar: endash
Encoding: 90 8211 89
Width: 921
VWidth: 0
GlyphClass: 2
Flags: HW
HStem: 398 134<93 829>
LayerCount: 2
Fore
SplineSet
93 532 m 1,0,-1
 852 532 l 1,1,-1
 829 398 l 1,2,-1
 69 398 l 1,3,-1
 93 532 l 1,0,-1
EndSplineSet
EndChar

StartChar: quoteleft
Encoding: 91 8216 90
Width: 586
VWidth: 0
GlyphClass: 2
Flags: HW
HStem: 797 506
VStem: 144 175<797 961.013>
LayerCount: 2
Fore
SplineSet
525 1223 m 1,0,1
 444 1159 444 1159 398 1074 c 128,-1,2
 352 989 352 989 330 860 c 2,3,-1
 319 797 l 1,4,-1
 144 797 l 1,5,6
 176 971 176 971 253 1091.5 c 128,-1,7
 330 1212 330 1212 468 1303 c 1,8,-1
 525 1223 l 1,0,1
EndSplineSet
EndChar

StartChar: quoteright
Encoding: 92 8217 91
Width: 585
VWidth: 0
GlyphClass: 2
Flags: HW
HStem: 774 506
VStem: 297 185<1115.42 1280>
LayerCount: 2
Fore
SplineSet
100 854 m 1,0,1
 182 917 182 917 228 1003 c 128,-1,2
 274 1089 274 1089 297 1219 c 2,3,-1
 308 1280 l 1,4,-1
 482 1280 l 1,5,6
 451 1107 451 1107 373.5 986 c 128,-1,7
 296 865 296 865 157 774 c 1,8,-1
 100 854 l 1,0,1
EndSplineSet
EndChar

StartChar: quotedblleft
Encoding: 93 8220 92
Width: 943
VWidth: 0
GlyphClass: 2
Flags: HW
HStem: 797 506
VStem: 144 175<797 961.013> 500 176<797 961.013>
LayerCount: 2
Fore
SplineSet
881 1223 m 1,0,1
 801 1159 801 1159 755 1074 c 128,-1,2
 709 989 709 989 687 860 c 2,3,-1
 676 797 l 1,4,-1
 500 797 l 1,5,6
 532 972 532 972 609 1092 c 128,-1,7
 686 1212 686 1212 824 1303 c 1,8,-1
 881 1223 l 1,0,1
525 1223 m 1,9,10
 444 1159 444 1159 398 1074 c 128,-1,11
 352 989 352 989 330 860 c 2,12,-1
 319 797 l 1,13,-1
 144 797 l 1,14,15
 176 971 176 971 253 1091.5 c 128,-1,16
 330 1212 330 1212 468 1303 c 1,17,-1
 525 1223 l 1,9,10
EndSplineSet
EndChar

StartChar: quotedblright
Encoding: 94 8221 93
Width: 941
VWidth: 0
GlyphClass: 2
Flags: HW
HStem: 774 506
VStem: 297 185<1115.42 1280> 652 185<1114.15 1280>
LayerCount: 2
Fore
SplineSet
100 854 m 1,0,1
 182 917 182 917 228 1003 c 128,-1,2
 274 1089 274 1089 297 1219 c 2,3,-1
 308 1280 l 1,4,-1
 482 1280 l 1,5,6
 451 1107 451 1107 373.5 986 c 128,-1,7
 296 865 296 865 157 774 c 1,8,-1
 100 854 l 1,0,1
458 854 m 1,9,10
 538 917 538 917 583.5 1002.5 c 128,-1,11
 629 1088 629 1088 652 1217 c 2,12,-1
 663 1280 l 1,13,-1
 837 1280 l 1,14,15
 806 1105 806 1105 729 985 c 128,-1,16
 652 865 652 865 514 774 c 1,17,-1
 458 854 l 1,9,10
EndSplineSet
EndChar

StartChar: bullet
Encoding: 95 8226 94
Width: 1087
VWidth: 0
GlyphClass: 2
Flags: HW
HStem: 355 593<400.723 685.949>
VStem: 276 535<487.156 817.344>
LayerCount: 2
Fore
SplineSet
276 653 m 0,0,1
 276 777 276 777 354 862.5 c 128,-1,2
 432 948 432 948 546 948 c 0,3,4
 658 948 658 948 734.5 862.5 c 128,-1,5
 811 777 811 777 811 653 c 0,6,7
 811 528 811 528 733.5 441.5 c 128,-1,8
 656 355 656 355 544 355 c 256,9,10
 431 355 431 355 353.5 441.5 c 128,-1,11
 276 528 276 528 276 653 c 0,0,1
EndSplineSet
EndChar

StartChar: uni2023
Encoding: 96 8227 95
Width: 1087
VWidth: 0
GlyphClass: 2
Flags: HW
HStem: 330 645
VStem: 276 607
LayerCount: 2
Fore
SplineSet
276 330 m 1,0,-1
 276 975 l 1,1,-1
 883 652 l 1,2,-1
 276 330 l 1,0,-1
EndSplineSet
EndChar

StartChar: ellipsis
Encoding: 97 8230 96
Width: 1843
VWidth: 0
GlyphClass: 2
Flags: HW
HStem: -25 267<244.436 390.564 857.996 1004.56 1472 1618.12>
VStem: 195 245<24 192.765> 809 245<24 192.984> 1423 245<24.2051 192.984>
CounterMasks: 1 70
LayerCount: 2
Fore
SplineSet
1426 108 m 0,0,1
 1436 164 1436 164 1477 203 c 128,-1,2
 1518 242 1518 242 1569 242 c 0,3,4
 1618 242 1618 242 1646 203 c 0,5,6
 1667 174 1667 174 1668 136 c 0,7,8
 1668 123 1668 123 1665 108 c 0,9,10
 1655 53 1655 53 1613 14 c 128,-1,11
 1571 -25 1571 -25 1522 -25 c 0,12,13
 1472 -24 1472 -24 1444 14 c 0,14,15
 1424 43 1424 43 1423 80 c 0,16,17
 1424 94 1424 94 1426 108 c 0,0,1
812 108 m 0,18,19
 822 164 822 164 863 203 c 128,-1,20
 904 242 904 242 955 242 c 0,21,22
 1004 242 1004 242 1032 203 c 0,23,24
 1053 174 1053 174 1054 136 c 0,25,26
 1054 123 1054 123 1051 108 c 0,27,28
 1041 53 1041 53 999.5 14 c 128,-1,29
 958 -25 958 -25 908 -25 c 0,30,31
 858 -24 858 -24 830 14 c 0,32,33
 810 42 810 42 809 79 c 0,34,35
 809 93 809 93 812 108 c 0,18,19
198 108 m 0,36,37
 208 164 208 164 249.5 203 c 128,-1,38
 291 242 291 242 341 242 c 0,39,40
 390 242 390 242 418 203 c 0,41,42
 439 174 439 174 440 136 c 0,43,44
 440 123 440 123 437 108 c 0,45,46
 427 53 427 53 385.5 14 c 128,-1,47
 344 -25 344 -25 294 -25 c 0,48,49
 244 -24 244 -24 216 14 c 0,50,51
 196 42 196 42 195 79 c 0,52,53
 195 93 195 93 198 108 c 0,36,37
EndSplineSet
EndChar

StartChar: zero.onum
Encoding: 169 -1 97
Width: 1172
VWidth: 0
Flags: HW
HStem: -25 99<410.225 672.358> 1204 99<627.828 889.323>
VStem: 158 181<162.855 675.883> 960 181<602.177 1118.54>
LayerCount: 2
Fore
SplineSet
532 74 m 128,-1,1
 670 74 670 74 767.5 214.5 c 128,-1,2
 865 355 865 355 924 639 c 0,3,4
 960 810 960 810 960 929 c 0,5,6
 960 1008 960 1008 944 1064 c 0,7,8
 905 1204 905 1204 767.5 1204 c 128,-1,9
 630 1204 630 1204 532.5 1063.5 c 128,-1,10
 435 923 435 923 375 639 c 0,11,12
 339 468 339 468 339 349 c 0,13,14
 339 270 339 270 355 214 c 0,15,0
 394 74 394 74 532 74 c 128,-1,1
514 -25 m 128,-1,17
 294 -25 294 -25 208 150 c 0,18,19
 158 251 158 251 158 399 c 0,20,21
 158 507 158 507 185 639 c 0,22,23
 249 954 249 954 408 1128.5 c 128,-1,24
 567 1303 567 1303 786 1303 c 0,25,26
 1006 1303 1006 1303 1092 1128 c 0,27,28
 1141 1028 1141 1028 1141 882 c 0,29,30
 1141 773 1141 773 1114 639 c 0,31,32
 1050 325 1050 325 892 150 c 128,-1,16
 734 -25 734 -25 514 -25 c 128,-1,17
EndSplineSet
EndChar

StartChar: one.onum
Encoding: 170 -1 98
Width: 1166
VWidth: 0
Flags: HW
HStem: 0 106<148 382 563 784> 1283 20G<646.041 796>
VStem: 129 675
DStem2: 312 1107 287 983 0.884712 0.466138<0 253.789> 361.396 0 542.396 0 0.190809 0.981627<142.52 1160.17>
LayerCount: 2
Fore
SplineSet
129 0 m 1,0,-1
 148 106 l 1,1,-1
 382 106 l 1,2,-1
 582 1139 l 1,3,-1
 287 983 l 1,4,-1
 312 1107 l 1,5,-1
 684 1303 l 1,6,-1
 796 1303 l 1,7,-1
 563 106 l 1,8,-1
 804 106 l 1,9,-1
 784 0 l 1,10,-1
 129 0 l 1,0,-1
EndSplineSet
EndChar

StartChar: two.onum
Encoding: 171 -1 99
Width: 1181
VWidth: 0
Flags: HW
HStem: 0 164<253 785> 1204 99<446.21 785.264>
VStem: 201 101<969 1036.1> 815 105<211 316> 851 199<844.349 1139.5>
DStem2: 11 108 253 164 0.793108 0.609081<226.041 965.432> 753.122 0 859.159 0 0.190809 0.981627<167.07 322.001>
LayerCount: 2
Fore
SplineSet
302 969 m 1,0,-1
 201 969 l 1,1,-1
 248 1189 l 1,2,3
 355 1244 355 1244 459.5 1273.5 c 128,-1,4
 564 1303 564 1303 658 1303 c 0,5,6
 870 1303 870 1303 972 1205 c 0,7,8
 1050 1131 1050 1131 1050 1016 c 0,9,10
 1050 979 1050 979 1042 938 c 0,11,12
 1003 747 1003 747 665 481 c 0,13,14
 640 461 640 461 627 451 c 2,15,-1
 253 164 l 1,16,-1
 785 164 l 1,17,-1
 815 316 l 1,18,-1
 920 313 l 1,19,-1
 859 0 l 1,20,-1
 -8 0 l 1,21,-1
 11 108 l 1,22,-1
 498 482 l 2,23,24
 659 608 659 608 738.5 713.5 c 128,-1,25
 818 819 818 819 843 935 c 0,26,27
 851 975 851 975 851 1010 c 0,28,29
 851 1085 851 1085 813 1133 c 0,30,31
 757 1204 757 1204 633 1204 c 0,32,33
 504 1204 504 1204 422 1145 c 128,-1,34
 340 1086 340 1086 302 969 c 1,0,-1
EndSplineSet
EndChar

StartChar: three.onum
Encoding: 172 -1 100
Width: 1303
Flags: HW
HStem: -246 99<286.147 668.623> 541 102<509 776.392> 1204 99<548.601 903.501>
VStem: 81 112<91.813 145> 281 112<950 1023.93> 884 210<77.7109 442.032> 973 206<840.014 1136.96>
LayerCount: 2
Fore
SplineSet
332 1213 m 5,0,1
 458 1257 458 1257 570 1280 c 132,-1,2
 682 1303 682 1303 776 1303 c 4,3,4
 995 1302 995 1302 1100 1208 c 4,5,6
 1179 1136 1179 1136 1179 1022 c 0,7,8
 1179 986 1179 986 1171 946 c 4,9,10
 1145 811 1145 811 1042.5 720.5 c 132,-1,11
 940 630 940 630 778 598 c 5,12,13
 956 572 956 572 1037 464 c 4,14,15
 1094 388 1094 388 1094 282 c 0,16,17
 1094 237 1094 237 1084 186 c 5,18,19
 1044 -23 1044 -23 881.5 -134.5 c 132,-1,20
 719 -246 719 -246 455 -246 c 4,21,22
 338 -246 338 -246 231.5 -221 c 132,-1,23
 125 -196 125 -196 25 -145 c 5,24,-1
 81 145 l 5,25,-1
 193 145 l 5,26,27
 189 117 189 117 189 91 c 0,28,29
 189 -13 189 -13 248 -73 c 4,30,31
 321 -147 321 -147 479 -147 c 4,32,33
 632 -147 632 -147 737.5 -58.5 c 132,-1,34
 843 30 843 30 873 184 c 4,35,36
 884 240 884 240 884 287 c 0,37,38
 884 388 884 388 834 450 c 4,39,40
 760 540 760 540 584 541 c 6,41,-1
 489 541 l 5,42,-1
 509 643 l 5,43,-1
 559 643 l 6,44,45
 734 643 734 643 835.5 715.5 c 132,-1,46
 937 788 937 788 966 934 c 5,47,48
 973 973 973 973 973 1007 c 0,49,50
 972 1086 972 1086 932 1134 c 4,51,52
 874 1204 874 1204 739 1204 c 132,-1,53
 604 1204 604 1204 517 1140 c 132,-1,54
 430 1076 430 1076 393 950 c 5,55,-1
 281 950 l 5,56,-1
 332 1213 l 5,0,1
EndSplineSet
EndChar

StartChar: four.onum
Encoding: 173 -1 101
Width: 1303
Flags: HW
HStem: -217 106<348 588 788 1007> 182 107<156 645 866 1130> 1283 20G<848.182 1063>
DStem2: 14 291 156 289 0.6436 0.765362<89.8605 1124.91> 567.396 -217 767.396 -217 0.190809 0.981627<146.146 406.477 553.68 1324.31>
LayerCount: 2
Fore
SplineSet
666 289 m 5,0,-1
 820 1083 l 5,1,-1
 156 289 l 5,2,-1
 666 289 l 5,0,-1
1007 -217 m 5,3,-1
 327 -217 l 5,4,-1
 348 -111 l 5,5,-1
 588 -111 l 5,6,-1
 645 182 l 5,7,-1
 -7 182 l 5,8,-1
 14 291 l 5,9,-1
 865 1303 l 5,10,-1
 1063 1303 l 5,11,-1
 866 289 l 5,12,-1
 1151 289 l 5,13,-1
 1130 182 l 5,14,-1
 845 182 l 5,15,-1
 788 -111 l 5,16,-1
 1028 -111 l 5,17,-1
 1007 -217 l 5,3,-1
EndSplineSet
EndChar

StartChar: five.onum
Encoding: 174 -1 102
Width: 1303
Flags: HW
HStem: -242 99<299.541 660.007> 661 99<443.566 802.406> 1116 164<462 1146>
VStem: 102 113<90.8757 149> 898 210<148.031 561.02>
DStem2: 91.9384 -242 198.226 -242 0.190809 0.981627<967.687 1403.66>
LayerCount: 2
Fore
SplineSet
1178 1280 m 5,0,-1
 1146 1116 l 5,1,-1
 462 1116 l 5,2,-1
 379 688 l 5,3,4
 438 724 438 724 511 742 c 132,-1,5
 584 760 584 760 670 760 c 4,6,7
 912 760 912 760 1026 626 c 4,8,9
 1108 530 1108 530 1108 383 c 0,10,11
 1108 325 1108 325 1095 260 c 4,12,13
 1049 23 1049 23 881.5 -109.5 c 132,-1,14
 714 -242 714 -242 458 -242 c 4,15,16
 355 -242 355 -242 252 -217 c 132,-1,17
 149 -192 149 -192 46 -141 c 5,18,-1
 102 149 l 5,19,-1
 215 149 l 5,20,21
 211 118 211 118 211 90 c 0,22,23
 211 -9 211 -9 263 -68 c 4,24,25
 330 -143 330 -143 477 -143 c 4,26,27
 635 -143 635 -143 740.5 -39 c 132,-1,28
 846 65 846 65 884 260 c 4,29,30
 898 331 898 331 898 390 c 0,31,32
 898 492 898 492 857 558 c 4,33,34
 794 661 794 661 637 661 c 0,35,-1
 634 661 l 4,36,37
 544 661 544 661 469 629 c 132,-1,38
 394 597 394 597 328 530 c 5,39,-1
 242 530 l 5,40,-1
 388 1280 l 5,41,-1
 1178 1280 l 5,0,-1
EndSplineSet
EndChar

StartChar: six.onum
Encoding: 175 -1 103
Width: 1303
Flags: HW
HStem: -29 99<461.676 771.415> 872 99<594.98 909.541> 1214 246<1144.5 1255> 1421 99<739.348 1085.32>
VStem: 168 210<191.782 591.732> 993 210<363.789 786.586>
LayerCount: 2
Fore
SplineSet
607 70 m 128,-1,1
 748 70 748 70 844 173.5 c 128,-1,2
 940 277 940 277 978 471 c 0,3,4
 993 549 993 549 993 613 c 0,5,6
 993 616 993 616 993 618 c 0,7,8
 993 707 993 707 960 768 c 0,9,10
 904 872 904 872 763 872 c 0,11,12
 620 872 620 872 525.5 772 c 128,-1,13
 431 672 431 672 394 483 c 0,14,15
 378 401 378 401 378 334 c 0,16,17
 378 239 378 239 410 177 c 0,18,0
 466 70 466 70 607 70 c 128,-1,1
427 822 m 1,19,20
 509 897 509 897 602.5 934 c 128,-1,21
 696 971 696 971 804 971 c 0,22,23
 1026 971 1026 971 1130 837 c 0,24,25
 1202 744 1202 744 1203 603 c 0,26,27
 1203 542 1203 542 1189 471 c 0,28,29
 1145 244 1145 244 978.5 107.5 c 128,-1,30
 812 -29 812 -29 579 -29 c 0,31,32
 326 -28 326 -28 227 160 c 0,33,34
 168 272 168 272 168 440 c 0,35,36
 168 556 168 556 196 698 c 0,37,38
 272 1090 272 1090 475 1305 c 128,-1,39
 678 1520 678 1520 971 1520 c 0,40,41
 1050 1520 1050 1520 1134 1505 c 128,-1,42
 1218 1490 1218 1490 1303 1460 c 1,43,-1
 1255 1214 l 1,44,-1
 1142 1214 l 1,45,46
 1143 1227 1143 1227 1143 1239 c 0,47,48
 1143 1322 1143 1322 1095 1368 c 0,49,50
 1040 1421 1040 1421 930 1421 c 0,51,52
 736 1421 736 1421 612.5 1274 c 128,-1,53
 489 1127 489 1127 427 822 c 1,19,20
EndSplineSet
EndChar

StartChar: seven.onum
Encoding: 176 -1 104
Width: 1303
Flags: HW
HStem: 1117 164<402 1092>
VStem: 249 117<933 1050> 277 149<-212 -63>
DStem2: 26.4345 -212 143.435 -212 0.190809 0.981627<1188.76 1376.24> 277 -212 426 -212 0.523208 0.852205<77.958 1558.99>
LayerCount: 2
Fore
SplineSet
1280 1179 m 5,0,-1
 426 -212 l 5,1,-1
 277 -212 l 5,2,-1
 1092 1117 l 5,3,-1
 402 1117 l 5,4,-1
 366 933 l 5,5,-1
 249 933 l 5,6,-1
 317 1281 l 5,7,-1
 1300 1281 l 5,8,-1
 1280 1179 l 5,0,-1
EndSplineSet
EndChar

StartChar: eight.onum
Encoding: 177 -1 105
Width: 1303
Flags: HW
HStem: -29 99<398.04 739.017> 745 99<561.825 852.459> 1421 99<658.373 968.452>
VStem: 100 212<154.558 514.375> 293 203<910.405 1243.41> 938 210<292.549 657.206> 1037 203<1025.84 1354.65>
LayerCount: 2
Fore
SplineSet
928 408 m 0,0,1
 938 461 938 461 938 507 c 0,2,3
 938 598 938 598 897 656 c 0,4,5
 835 744 835 744 691 744 c 0,6,-1
 689 745 l 0,7,8
 546 744 546 744 450 656 c 0,9,10
 353 568 353 568 322 408 c 0,11,12
 312 355 312 355 312 309 c 0,13,14
 312 216 312 216 354 158 c 0,15,16
 416 70 416 70 560 70 c 128,-1,17
 704 70 704 70 800.5 158.5 c 128,-1,18
 897 247 897 247 928 408 c 0,0,1
1028 1133 m 1,19,20
 1037 1178 1037 1178 1037 1217 c 0,21,22
 1036 1295 1036 1295 1000 1345 c 0,23,24
 946 1421 946 1421 822 1421 c 0,25,26
 699 1421 699 1421 615 1345 c 128,-1,27
 531 1269 531 1269 504 1133 c 1,28,29
 496 1089 496 1089 496 1051 c 0,30,31
 496 972 496 972 532 920 c 0,32,33
 586 844 586 844 710 844 c 128,-1,34
 834 844 834 844 918 920 c 128,-1,35
 1002 996 1002 996 1028 1133 c 1,19,20
855 795 m 1,36,37
 1020 772 1020 772 1095 670 c 0,38,39
 1148 597 1148 597 1148 496 c 0,40,41
 1148 454 1148 454 1139 408 c 0,42,43
 1099 198 1099 198 943.5 84.5 c 128,-1,44
 788 -29 788 -29 540 -29 c 0,45,46
 538 -29 538 -29 536 -29 c 0,47,48
 292 -29 292 -29 182 84 c 0,49,50
 100 167 100 167 100 304 c 0,51,52
 100 353 100 353 111 408 c 0,53,54
 142 567 142 567 257 669.5 c 128,-1,55
 372 772 372 772 548 795 c 1,56,57
 402 822 402 822 338 910 c 0,58,59
 293 972 293 972 293 1058 c 0,60,61
 293 1093 293 1093 301 1133 c 0,62,63
 336 1313 336 1313 480.5 1416.5 c 128,-1,64
 625 1520 625 1520 842 1520 c 4,65,66
 1058 1520 1058 1520 1162 1416 c 0,67,68
 1239 1339 1239 1339 1240 1219 c 0,69,70
 1240 1178 1240 1178 1231 1133 c 0,71,72
 1205 997 1205 997 1107.5 909.5 c 128,-1,73
 1010 822 1010 822 855 795 c 1,36,37
EndSplineSet
EndChar

StartChar: nine.onum
Encoding: 178 -1 106
Width: 1303
Flags: HW
HStem: -246 99<286.526 630.819> -186 248<116 226.496> 303 98<459.796 775.232> 1204 99<599.252 909.076>
VStem: 168 210<486.457 910.528> 993 209<682.558 1085.11>
LayerCount: 2
Fore
SplineSet
943 452 m 5,0,1
 862 377 862 377 767.5 340 c 132,-1,2
 673 303 673 303 564 303 c 4,3,4
 342 303 342 303 240 437 c 4,5,6
 169 530 169 530 168 671 c 0,7,8
 168 733 168 733 182 803 c 4,9,10
 226 1030 226 1030 392.5 1166.5 c 132,-1,11
 559 1303 559 1303 792 1303 c 4,12,13
 1046 1302 1046 1302 1144 1114 c 4,14,15
 1202 1002 1202 1002 1202 835 c 0,16,17
 1202 719 1202 719 1174 576 c 4,18,19
 1098 184 1098 184 895 -31 c 132,-1,20
 692 -246 692 -246 400 -246 c 4,21,22
 321 -246 321 -246 237 -231 c 132,-1,23
 153 -216 153 -216 68 -186 c 5,24,-1
 116 62 l 5,25,-1
 228 62 l 5,26,27
 227 52 227 52 227 39 c 0,28,29
 227 -46 227 -46 276 -93 c 4,30,31
 330 -147 330 -147 440 -147 c 4,32,33
 634 -147 634 -147 757.5 -0.5 c 132,-1,34
 881 146 881 146 943 452 c 5,0,1
764 1204 m 4,35,36
 622 1204 622 1204 526 1100 c 4,37,38
 432 996 432 996 394 803 c 4,39,40
 379 724 379 724 378 660 c 0,41,42
 378 566 378 566 411 505 c 4,43,44
 466 401 466 401 608 401 c 132,-1,45
 750 401 750 401 845 501.5 c 132,-1,46
 940 602 940 602 977 791 c 4,47,48
 993 873 993 873 993 940 c 0,49,50
 992 1035 992 1035 960 1097 c 4,51,52
 904 1204 904 1204 764 1204 c 4,35,36
EndSplineSet
EndChar
